<?xml version="1.0" encoding="UTF-8" standalone="no"?>
<!-- Created with Inkscape (http://www.inkscape.org/) -->

<svg
   width="200"
   height="200"
   viewBox="0 0 52.916664 52.916668"
   version="1.1"
   id="svg11630"
   inkscape:version="1.2.1 (9c6d41e410, 2022-07-14)"
   sodipodi:docname="baby-treatment.svg"
   xmlns:inkscape="http://www.inkscape.org/namespaces/inkscape"
   xmlns:sodipodi="http://sodipodi.sourceforge.net/DTD/sodipodi-0.dtd"
   xmlns="http://www.w3.org/2000/svg"
   xmlns:svg="http://www.w3.org/2000/svg">
  <sodipodi:namedview
     id="namedview11632"
     pagecolor="#ffffff"
     bordercolor="#000000"
     borderopacity="0.25"
     inkscape:showpageshadow="2"
     inkscape:pageopacity="0.0"
     inkscape:pagecheckerboard="0"
     inkscape:deskcolor="#d1d1d1"
     inkscape:document-units="mm"
     showgrid="false"
     inkscape:zoom="0.71624579"
     inkscape:cx="363.00388"
     inkscape:cy="316.23222"
     inkscape:window-width="1920"
     inkscape:window-height="991"
     inkscape:window-x="-9"
     inkscape:window-y="-9"
     inkscape:window-maximized="1"
     inkscape:current-layer="g593" />
  <defs
     id="defs11627" />
  <g
     inkscape:label="Lapis 1"
     inkscape:groupmode="layer"
     id="layer1">
    <g
       id="g593"
       transform="matrix(0.35277776,0,0,-0.35277778,-25.116971,242.87677)">
      <g
         id="g595"
         transform="translate(-208.3782,206.28393)">
        <path
           d="m 397.0485,373.3398 c 0,0 3.9232,9.0876 5.5693,12.159 0,0 -0.6877,1.4476 -1.0075,3.8406 -0.2523,1.8893 0.2574,3.4555 0.9043,3.6641 0.8096,0.2602 1.87,-1.1183 2.5648,-2.382 0,0 0.7951,0.6994 1.1222,1.0273 0,0 1.2969,4.1485 2.721,3.6885 1.4241,-0.4618 0.104,-4.6715 0.104,-4.6715 0,0 1.7334,4.7429 3.1986,4.1961 1.467,-0.5462 -0.2659,-5.2875 -0.2659,-5.2875 0,0 1.8814,4.3532 3.2596,3.7701 1.3771,-0.5845 -0.4978,-4.9323 -0.4978,-4.9323 0,0 1.7518,3.8274 3.043,3.2142 1.2901,-0.6134 -0.4626,-4.443 -0.4626,-4.443 -1.3972,-3.8721 -3.0767,-5.3184 -3.0767,-5.3184 0.9842,-11.1019 -4.1349,-27.5272 -13.6885,-29.1356 -4.7052,-0.7923 -9.7557,0.8949 -13.4518,2.6385 4.0042,6.865 5.5403,15.0574 6.1205,19.8505 2.2655,-1.0772 3.8435,-1.8786 3.8435,-1.8786"
           style="fill:#e7b699;fill-opacity:1;fill-rule:nonzero;stroke:none"
           id="path597" />
        <path
           d="m 397.0485,373.3398 z m 0,0 c -10e-4,-2e-4 -10e-4,-2e-4 -10e-4,9e-4 0,-0.001 0,-0.001 10e-4,-9e-4 z m -0.002,9e-4 z m -9e-4,6e-4 z m -10e-4,-3e-4 c 0,10e-4 0,10e-4 0,10e-4 0,0 0,0 0,-10e-4"
           style="fill:#d8b0b7;fill-opacity:1;fill-rule:nonzero;stroke:none"
           id="path599" />
        <path
           d="m 328.8268,361.853 c 0,0 -6.6829,7.3018 -9.2426,9.665 0,0 0.1743,1.5931 -0.3059,3.9589 -0.3804,1.8677 -1.3759,3.1802 -2.0551,3.1657 -0.8492,-0.019 -1.4009,-1.669 -1.6427,-3.0903 0,0 -0.9802,0.4002 -1.3977,0.6029 0,0 -2.5827,3.4954 -3.7778,2.5943 -1.1945,-0.9026 1.4307,-4.4481 1.4307,-4.4481 0,0 -3.1901,3.9137 -4.3963,2.9174 -1.2064,-0.9964 1.9834,-4.9088 1.9834,-4.9088 0,0 -3.202,3.4974 -4.3143,2.4948 -1.1106,-1.0035 2.0863,-4.4972 2.0863,-4.4972 0,0 -2.9106,3.0424 -3.9288,2.0404 -1.0177,-1.002 1.8924,-4.0465 1.8924,-4.0465 2.588,-3.2011 4.6471,-4.0178 4.6471,-4.0178 2.7071,-10.8119 12.9226,-24.6552 22.4759,-23.0468 4.7044,0.792 8.9252,4.0405 11.846,6.8981 -6.031,5.1752 -10.1665,12.4129 -12.2842,16.7516 -1.7867,-1.7594 -3.0164,-3.0336 -3.0164,-3.0336"
           style="fill:#e7b699;fill-opacity:1;fill-rule:nonzero;stroke:none"
           id="path601" />
        <path
           d="m 328.8268,361.853 c 0,0 0.5349,0.5533 1.4108,1.4352 v 0 c -0.8725,-0.8765 -1.4108,-1.4352 -1.4108,-1.4352"
           style="fill:#d8b0b7;fill-opacity:1;fill-rule:nonzero;stroke:none"
           id="path603" />
        <path
           d="m 344.454,375.2793 c -2.7757,-0.9887 -9.3547,-6.7337 -13.059,-10.3805 2.1178,-4.3387 7.2757,-12.4288 12.7324,-16.7638 2.5449,2.4883 4.1088,4.68 4.1088,4.68 z"
           style="fill:#f6bbbf;fill-opacity:1;fill-rule:nonzero;stroke:none"
           id="path605" />
        <path
           d="m 341.9254,350.098 c 0.1985,5.2577 0.5684,10.0109 0.9596,13.9334 l -0.002,-3e-4 c 0,0 -1.336,-5.2948 -2.1597,-12.696 0.396,-0.4252 0.7965,-0.8385 1.2021,-1.2371"
           style="fill:#f2a1a6;fill-opacity:1;fill-rule:nonzero;stroke:none"
           id="path607" />
        <path
           d="m 344.0319,373.4059 c 0.157,1.0528 0.2633,1.6832 0.2871,1.8221 -0.2528,-0.1006 -0.5369,-0.2415 -0.8379,-0.4051 0.0748,-0.3917 0.2268,-0.9238 0.5508,-1.417"
           style="fill:#f2a1a6;fill-opacity:1;fill-rule:nonzero;stroke:none"
           id="path609" />
        <path
           d="m 377.8877,380.9086 c 2.945,-0.0255 11.0424,-3.2995 15.7377,-5.5318 -0.5811,-4.7934 -2.8051,-14.1262 -6.5409,-20.0089 -3.2191,1.5177 -5.4145,3.0767 -5.4145,3.0767 z"
           style="fill:#f6bbbf;fill-opacity:1;fill-rule:nonzero;stroke:none"
           id="path611" />
        <path
           d="m 388.5242,357.9471 c 0.2509,0.508 0.4938,1.029 0.7291,1.5594 -3.2029,6.7229 -6.198,11.2887 -6.198,11.2887 v 0 c 1.6529,-3.5776 3.5586,-7.9464 5.4689,-12.8481"
           style="fill:#f2a1a6;fill-opacity:1;fill-rule:nonzero;stroke:none"
           id="path613" />
        <path
           d="m 378.8997,379.2776 c 0.1446,0.5723 0.114,1.125 0.0564,1.5185 -0.3381,0.0558 -0.6525,0.0958 -0.9244,0.1083 0.0681,-0.1233 0.3751,-0.6843 0.868,-1.6268"
           style="fill:#f2a1a6;fill-opacity:1;fill-rule:nonzero;stroke:none"
           id="path615" />
        <path
           d="m 361.6308,375.374 c -8.0507,-1.3555 -10.7207,0.4249 -11.6144,1.815 l 2.9914,1.3788 -2.2694,13.4779 15.7229,2.6472 2.2691,-13.4776 3.2794,-0.3245 c -0.3883,-1.6047 -2.3281,-4.1613 -10.379,-5.5168"
           style="fill:#e7b699;fill-opacity:1;fill-rule:nonzero;stroke:none"
           id="path617" />
        <path
           d="m 360.9079,379.6671 c 2.6842,0.4518 5.2974,1.006 7.8024,1.6687 l -0.2282,1.3553 c -2.5441,-0.6772 -5.2033,-1.2388 -7.9342,-1.6986 -2.6373,-0.4439 -5.2429,-0.7764 -7.7848,-0.972 l 0.2243,-1.332 c 2.5837,0.1939 5.2344,0.5261 7.9205,0.9786"
           style="fill:#c87048;fill-opacity:1;fill-rule:nonzero;stroke:none"
           id="path619" />
        <path
           d="m 371.9095,380.9013 v 0 l -0.8603,0.0844 v 0 z"
           style="fill:#d8b0b7;fill-opacity:1;fill-rule:nonzero;stroke:none"
           id="path621" />
        <path
           d="m 371.2723,379.7082 c -3e-4,0.001 5e-4,0.001 0.002,0.002 -3e-4,0.001 -0.002,0.002 -0.002,0.003 0.3223,0.4213 0.5207,0.8241 0.6372,1.1875 l -0.8603,0.0844 c 0.0184,-0.4286 0.0904,-0.8617 0.2231,-1.2775"
           style="fill:#c87048;fill-opacity:1;fill-rule:nonzero;stroke:none"
           id="path623" />
        <path
           d="m 350.104,377.229 0.7869,0.3625 v 0 z"
           style="fill:#d8b0b7;fill-opacity:1;fill-rule:nonzero;stroke:none"
           id="path625" />
        <path
           d="m 351.0989,376.3094 c -0.0107,0.4363 -0.0847,0.8691 -0.208,1.2821 l -0.7869,-0.3625 c 0.2287,-0.3056 0.5493,-0.6219 0.9944,-0.9153 0,-10e-4 -6e-4,-0.002 -6e-4,-0.003 3e-4,-10e-4 10e-4,-9e-4 10e-4,-9e-4"
           style="fill:#c87048;fill-opacity:1;fill-rule:nonzero;stroke:none"
           id="path627" />
        <path
           d="m 391.1944,350.7046 c -5.9972,17.2593 -13.1768,30.2259 -13.1768,30.2259 l -6.048,0.1859 c -0.3881,-1.6058 -2.3287,-4.1624 -10.3788,-5.5179 -8.051,-1.3555 -10.7218,0.4232 -11.6144,1.8136 l -5.6526,-2.1546 c 0,0 -2.5355,-14.6024 -2.5503,-32.874 -1.6342,-18.5099 3.7984,-36.3866 25.1586,-32.7903 l 11.2264,1.8901 c 21.3601,3.5966 20.6404,22.267 13.0359,39.2213"
           style="fill:#f6bbbf;fill-opacity:1;fill-rule:nonzero;stroke:none"
           id="path629" />
        <path
           d="m 344.3238,375.2575 z m 5.7802,1.9715 v 0 c -0.0457,0.0621 -0.0888,0.1227 -0.1276,0.1831 0.0388,-0.0604 0.0808,-0.1222 0.1276,-0.1831"
           style="fill:#f0c6dc;fill-opacity:1;fill-rule:nonzero;stroke:none"
           id="path631" />
        <path
           d="m 351.0978,376.3103 c 0,0.001 6e-4,0.002 6e-4,0.003 -0.4451,0.2934 -0.7657,0.6097 -0.9944,0.9153 v 0 c 0.2282,-0.307 0.5479,-0.6256 0.9938,-0.9187"
           style="fill:#cd623d;fill-opacity:1;fill-rule:nonzero;stroke:none"
           id="path633" />
        <path
           d="m 347.2121,372.1737 c 0.2939,0.0496 0.6018,0.1278 0.9198,0.2372 2.2587,0.766 3.0098,2.3485 2.9659,3.8994 -0.4459,0.2931 -0.7656,0.6117 -0.9938,0.9187 v 0 c -0.0468,0.0609 -0.0888,0.1227 -0.1276,0.1831 v 0 l -5.6526,-2.1546 v 0 0 c -8e-4,-0.007 -0.1142,-0.6625 -0.2854,-1.8125 0.2134,-0.3311 0.4708,-0.6503 0.8561,-0.8935 0.6409,-0.4028 1.4173,-0.5295 2.3176,-0.3778"
           style="fill:#f2a1a6;fill-opacity:1;fill-rule:nonzero;stroke:none"
           id="path635" />
        <path
           d="m 378.0176,380.9305 z m -6.1078,-0.0301 c 0.0226,0.0737 0.0431,0.1463 0.0598,0.216 -0.0167,-0.0697 -0.0372,-0.1423 -0.0601,-0.2151 z"
           style="fill:#f0c6dc;fill-opacity:1;fill-rule:nonzero;stroke:none"
           id="path637" />
        <path
           d="m 371.9098,380.9004 -3e-4,9e-4 v 0 z"
           style="fill:#df9b9f;fill-opacity:1;fill-rule:nonzero;stroke:none"
           id="path639" />
        <path
           d="m 371.274,379.7107 c 0.3242,0.4215 0.5204,0.826 0.6358,1.1897 l -3e-4,9e-4 c -0.1165,-0.3634 -0.3149,-0.7662 -0.6372,-1.1875 0,-10e-4 0.001,-0.002 0.002,-0.003"
           style="fill:#cd623d;fill-opacity:1;fill-rule:nonzero;stroke:none"
           id="path641" />
        <path
           d="m 376.2984,377.0711 c 0.9017,0.1516 1.5925,0.5255 2.067,1.116 0.2829,0.3557 0.4243,0.7421 0.5153,1.1245 -0.5383,1.0295 -0.86,1.6129 -0.8631,1.6189 v 0 0 l -6.048,0.1859 v 0 c -0.0167,-0.0697 -0.0372,-0.1423 -0.0598,-0.216 v 0 c -0.1154,-0.3637 -0.3116,-0.7682 -0.6358,-1.1897 0.4674,-1.4817 1.6948,-2.7323 4.0776,-2.7167 0.3384,10e-4 0.6539,0.0278 0.9468,0.0771"
           style="fill:#f2a1a6;fill-opacity:1;fill-rule:nonzero;stroke:none"
           id="path643" />
        <path
           d="m 344.4466,375.5432 c -0.097,-0.036 -0.1588,-0.1309 -0.1457,-0.2327 0.0791,-0.6715 0.5734,-3.0362 3.549,-2.0256 2.8987,0.9853 2.4035,3.3817 2.1682,4.1278 -0.0386,0.1261 -0.1741,0.1876 -0.2979,0.1417 z"
           style="fill:#f6bbbf;fill-opacity:1;fill-rule:nonzero;stroke:none"
           id="path645" />
        <path
           d="m 377.8089,381.1606 c 0.1035,-0.002 0.1928,-0.072 0.2152,-0.172 0.1443,-0.6608 0.451,-3.0569 -2.6915,-3.0762 -3.0603,-0.0181 -3.378,2.4083 -3.4002,3.1901 -0.004,0.1318 0.1032,0.2344 0.2362,0.2316 z"
           style="fill:#f6bbbf;fill-opacity:1;fill-rule:nonzero;stroke:none"
           id="path647" />
        <path
           d="m 324.3753,389.5991 c -3.9966,-1.2396 -6.9826,0.8631 -8.6808,4.547 -3.5532,1.9701 -5.8941,-1.2628 -10.0556,1.7768 -3.3245,2.4287 -3.7897,7.2482 -1.3079,11.5109 -1.2966,3.4237 -6.2932,3.6584 -5.082,11.3154 1.0868,6.8672 9.6245,9.354 9.6245,9.354 0,0 0.0904,9.889 7.797,21.0011 6.9556,10.0286 18.6295,13.4112 30.253,12.7998 10.7833,4.3843 22.9212,5.0111 32.7784,-2.1869 10.9205,-7.9759 14.2441,-17.29 14.2441,-17.29 0,0 8.8815,0.4459 12.157,-5.6865 3.6518,-6.8383 -0.9924,-8.6962 -1.097,-12.356 3.7414,-3.2147 4.8804,-7.9208 2.5344,-11.3043 -2.937,-4.2349 -6.2073,-1.9465 -8.9195,-4.9716 -0.3983,-4.0369 -2.5313,-7.0016 -6.7133,-7.1391 z"
           style="fill:#000000;fill-opacity:1;fill-rule:nonzero;stroke:none"
           id="path649" />
        <path
           d="m 323.3013,389.3414 c 0.3438,0.0578 0.697,0.1412 1.0576,0.2526 v 0 c -0.3606,-0.1114 -0.7138,-0.1948 -1.0576,-0.2526 -3.46,-0.5825 -6.0642,1.4584 -7.6068,4.8047 -3.5532,1.9701 -5.8941,-1.2628 -10.0556,1.7768 -0.1616,0.1191 -0.3169,0.2415 -0.4646,0.3713 0.1477,-0.1298 0.3024,-0.2537 0.4646,-0.3722 4.1615,-3.0387 6.5024,0.1942 10.0556,-1.7759 1.5426,-3.3463 4.1468,-5.3872 7.6068,-4.8047 z m 69.7056,11.7366 c 3.46,0.5825 5.252,3.3639 5.614,7.0308 2.7122,3.0251 5.9825,0.7367 8.9195,4.9708 0.1145,0.165 0.2203,0.3328 0.3172,0.5037 -0.0972,-0.1698 -0.2038,-0.3376 -0.3172,-0.5029 -2.937,-4.2349 -6.2073,-1.9465 -8.9195,-4.9716 -0.362,-3.6669 -2.154,-6.4483 -5.614,-7.0308 -0.3438,-0.0578 -0.705,-0.0947 -1.0828,-0.1077 v 0 c 0.3778,0.013 0.739,0.0499 1.0828,0.1077"
           style="fill:#b393a1;fill-opacity:1;fill-rule:nonzero;stroke:none"
           id="path651" />
        <path
           d="m 323.3013,389.3414 c 0.3438,0.0578 0.697,0.1412 1.0576,0.2526 -0.8895,1.3445 -1.6424,2.8494 -2.2414,4.5246 -0.4204,-0.1967 -0.8855,-0.3376 -1.3807,-0.4209 -2.9194,-0.4915 -6.8647,1.0159 -8.7503,4.9391 -2.7267,5.6701 0.0949,10.1653 4.081,10.8366 0.1333,0.0223 0.2671,0.0405 0.4028,0.0547 0.402,0.0413 0.8133,0.0436 1.232,0.006 0.2313,-0.0215 0.4549,-0.055 0.6709,-0.1009 -0.2347,0.6849 -0.4895,1.4692 -0.7509,2.3392 -0.0504,-0.0667 -0.1029,-0.1304 -0.1584,-0.1914 l -0.1602,-0.007 c 0.0726,-0.3909 0.1505,-0.7755 0.2325,-1.1256 0,0 -1.0908,0.3149 -2.6133,0.0587 -1.122,-0.1891 -2.4798,-0.6894 -3.8052,-1.857 0.002,-0.0139 0.005,-0.0289 0.007,-0.0437 0.1503,-0.8776 -0.0666,-1.5891 -0.4535,-2.1855 -0.5165,-0.7991 -1.3096,-1.4247 -1.9689,-2.1484 -0.3059,-2.2186 0.3914,-4.4988 1.2089,-6.2951 0,0 -0.1695,-0.0221 -0.4566,-0.0397 0.0391,-0.0264 0.0785,-0.0513 0.1176,-0.0766 0.4399,-0.282 0.8688,-0.4796 1.1857,-0.6049 0.1585,-0.0629 0.2892,-0.1088 0.3793,-0.1374 l 0.1375,-0.0417 c 0.1069,-0.0292 0.1701,-0.1389 0.1412,-0.2466 -0.021,-0.078 -0.0851,-0.1327 -0.1608,-0.1454 -0.0275,-0.005 -0.0561,-0.004 -0.0847,0.003 -0.0131,0.004 -0.8782,0.2358 -1.815,0.8339 -0.1826,0.1171 -0.3697,0.2492 -0.552,0.3957 -1.9122,-0.005 -5.6613,0.4408 -6.0134,3.9918 0.009,-2.2042 0.7906,-4.2214 2.384,-5.6152 0.1477,-0.1298 0.303,-0.2522 0.4646,-0.3713 4.1615,-3.0396 6.5024,0.1933 10.0556,-1.7768 1.5426,-3.3463 4.1468,-5.3872 7.6068,-4.8047 z m 69.7056,11.7366 c 3.46,0.5825 5.252,3.3639 5.614,7.0308 2.7122,3.0251 5.9825,0.7367 8.9195,4.9716 0.1134,0.1653 0.22,0.3331 0.3172,0.5029 1.084,1.8995 1.1384,4.1462 0.345,6.2949 1.0284,-3.6221 -2.4713,-5.3223 -4.3109,-5.9525 -0.1245,-0.1973 -0.2569,-0.3818 -0.3912,-0.5522 -0.6894,-0.8722 -1.431,-1.3739 -1.4417,-1.3824 -0.0247,-0.0162 -0.0516,-0.0261 -0.0791,-0.0306 -0.0757,-0.0128 -0.1542,0.0178 -0.1996,0.0847 -0.0626,0.0922 -0.0388,0.2169 0.0525,0.2792 l 0.1165,0.0842 c 0.2403,0.1809 0.8121,0.6497 1.3209,1.3241 -0.2721,-0.0757 -0.4362,-0.11 -0.4362,-0.11 0.1834,1.9616 0.0963,4.3401 -0.9142,6.334 -0.2197,0.1208 -0.4465,0.2316 -0.6758,0.343 -0.6636,0.3178 -1.3396,0.6106 -1.9006,1.0511 -0.5599,0.4371 -0.9987,1.0381 -1.1444,1.9165 -0.003,0.0156 -0.005,0.0318 -0.007,0.0479 -1.633,0.6664 -3.0764,0.6939 -4.1972,0.5051 -1.5214,-0.2562 -2.4489,-0.9107 -2.4489,-0.9107 -0.0371,0.3574 -0.0898,0.7475 -0.1493,1.1395 l -0.1608,-0.0468 c -0.0723,0.0391 -0.1431,0.0822 -0.2123,0.1287 0.038,-0.9085 0.053,-1.7334 0.0564,-2.4568 0.1902,0.114 0.3918,0.2203 0.6044,0.3164 0.3858,0.1746 0.7786,0.3075 1.1749,0.4005 0.1299,0.0295 0.2594,0.0556 0.3892,0.0774 3.9872,0.6712 8.1241,-2.6521 7.4058,-8.9025 -0.4977,-4.3245 -3.7318,-7.0407 -6.6512,-7.5322 -0.4946,-0.0833 -0.9811,-0.1026 -1.4431,-0.0544 -0.0167,-1.7791 -0.2356,-3.4475 -0.6355,-5.0091 0.3778,0.013 0.739,0.0499 1.0828,0.1077 z m 8.5476,19.5185 c -0.6534,1.0165 -1.5919,1.8981 -2.914,2.5214 0.1587,-0.6568 0.4972,-1.0919 0.951,-1.4516 0.536,-0.4249 1.2421,-0.72 1.963,-1.0698 z m -92.715,-15.6022 c 0.0328,0.0321 0.0646,0.0647 0.0975,0.0967 0.5312,0.5233 1.0511,1.0074 1.3963,1.5466 0.3104,0.4873 0.4881,1.0068 0.4244,1.6789 -1.0384,-1.0187 -1.6342,-2.1534 -1.9182,-3.3222 z m 82.5026,19.4094 c -0.2208,1.385 -0.5026,2.7131 -0.515,2.7734 0.0779,-0.892 0.1335,-1.7373 0.1723,-2.5265 0.1111,-0.0941 0.2248,-0.1769 0.3427,-0.2469 z M 317.238,411.933 c 0.0856,0.1032 0.1641,0.2154 0.2366,0.3381 -0.2165,0.7405 -0.4354,1.5384 -0.6488,2.3837 0.0357,-0.2846 0.1947,-1.4885 0.4122,-2.7218"
           style="fill:#606161;fill-opacity:1;fill-rule:nonzero;stroke:none"
           id="path653" />
        <path
           d="m 406.0868,436.7707 v 0.001 z"
           style="fill:#b393a1;fill-opacity:1;fill-rule:nonzero;stroke:none"
           id="path655" />
        <path
           d="m 405.006,424.3847 v 0 c 0.0833,2.9342 3.0857,4.7095 2.3907,8.8234 -0.1721,1.0174 -0.5703,2.1773 -1.2937,3.5326 -0.005,0.0102 -0.0111,0.0201 -0.0162,0.03 v 0.001 c -0.7007,1.2986 -1.6605,2.2865 -2.7249,3.0583 2.8221,-2.8998 1.5698,-6.9542 0.854,-10.3969 -0.7183,-3.4594 0.7901,-5.0488 0.7901,-5.0488"
           style="fill:#606161;fill-opacity:1;fill-rule:nonzero;stroke:none"
           id="path657" />
        <path
           d="m 299.253,418.7775 c 5e-4,0.003 0.001,0.007 0.002,0.009 -3e-4,-0.004 -10e-4,-0.006 -0.002,-0.009 z m 0.006,0.0349 c 6e-4,0.002 10e-4,0.006 0.002,0.009 -3e-4,-0.003 -0.001,-0.006 -0.002,-0.009"
           style="fill:#b393a1;fill-opacity:1;fill-rule:nonzero;stroke:none"
           id="path659" />
        <path
           d="m 304.3318,407.4338 c 0,0 0.9088,1.9962 -0.9037,5.0295 -1.7838,2.9869 -4.2981,6.3613 -2.6858,9.9834 -0.7064,-1.0426 -1.2509,-2.2397 -1.4814,-3.6253 -3e-4,-0.003 -10e-4,-0.007 -0.002,-0.009 -0.002,-0.009 -0.002,-0.0167 -0.005,-0.0258 -6e-4,-0.002 -10e-4,-0.006 -0.002,-0.009 -6e-4,-0.009 -0.003,-0.0181 -0.004,-0.0283 -1.2112,-7.657 3.7854,-7.8917 5.0828,-11.3154"
           style="fill:#606161;fill-opacity:1;fill-rule:nonzero;stroke:none"
           id="path661" />
        <path
           d="m 322.4582,406.7385 c 0,0 -1.7234,2.5172 -4.7556,2.7941 -4.7759,0.4397 -8.8039,-4.4745 -5.7161,-10.8958 2.2901,-4.7653 7.6215,-5.9661 10.4587,-4.3489 2.3275,1.3252 2.4698,4.0351 2.4698,4.0351 z"
           style="fill:#e7b699;fill-opacity:1;fill-rule:nonzero;stroke:none"
           id="path663" />
        <path
           d="m 313.2493,400.9037 c -0.0598,0.1805 -0.1054,0.3668 -0.1377,0.5575 -0.1778,1.0616 0.0629,2.2349 0.6278,3.202 0.5638,0.9664 1.465,1.7317 2.6144,1.9262 0.2858,0.0482 0.5848,0.0604 0.8963,0.0326 2.2499,-0.2041 3.8033,-1.609 4.7827,-2.9398 0.9819,-1.3346 1.4065,-2.6088 1.411,-2.6212 0.0349,-0.1046 -0.0215,-0.2183 -0.1272,-0.2537 -0.1046,-0.0352 -0.2186,0.0224 -0.2537,0.127 0,0 -0.0241,0.0728 -0.0774,0.2072 -0.1848,0.4717 -0.7129,1.6693 -1.654,2.7811 -0.9434,1.1128 -2.2853,2.133 -4.1179,2.2988 -0.2773,0.0256 -0.5417,0.0142 -0.7932,-0.0283 -1.0065,-0.1695 -1.8136,-0.8444 -2.3349,-1.732 -0.519,-0.8864 -0.7389,-1.9797 -0.5777,-2.933 0.029,-0.1718 0.0701,-0.3379 0.1225,-0.4977 0.0351,-0.1061 -0.0213,-0.2197 -0.127,-0.2549 -0.1049,-0.034 -0.2188,0.0224 -0.254,0.1282"
           style="fill:#b47157;fill-opacity:1;fill-rule:nonzero;stroke:none"
           id="path665" />
        <path
           d="m 318.3735,409.4323 c -3e-4,8e-4 -3e-4,8e-4 -3e-4,8e-4 -0.216,0.0459 -0.4396,0.0794 -0.6709,0.1009 -0.4187,0.0377 -0.83,0.0354 -1.232,-0.006 0.402,0.0413 0.8133,0.0436 1.2323,0.005 0.231,-0.0213 0.4549,-0.0547 0.6709,-0.1003"
           style="fill:#591611;fill-opacity:1;fill-rule:nonzero;stroke:none"
           id="path667" />
        <path
           d="m 321.592,393.9426 c 0.176,0.0593 0.3534,0.1188 0.523,0.1865 -0.4992,1.3964 -0.8904,2.9118 -1.1668,4.5536 -0.3963,2.3539 -0.8053,4.5683 -1.2081,6.6603 -0.7115,0.4586 -1.5497,0.7897 -2.5265,0.8784 -0.059,0.005 -0.1177,0.009 -0.1752,0.0111 0.7067,-0.591 1.3635,-1.4533 1.8947,-2.6878 0,0 0.9107,-5.3787 2.6589,-9.6021 z m -1.9545,11.9319 c -0.0289,0.1528 -0.0593,0.3056 -0.089,0.4575 0,0 -9e-4,-10e-4 -0.002,-0.002 0,0 -0.5015,1.1429 -1.173,3.102 -0.216,0.0456 -0.4399,0.079 -0.6709,0.1003 -0.419,0.0391 -0.8303,0.0368 -1.2323,-0.005 -0.1323,-0.0136 -0.2642,-0.0315 -0.394,-0.0533 -1.4896,-0.2509 -2.8165,-1.0384 -3.7531,-2.2193 0.0933,0.0199 0.19,0.0383 0.2892,0.055 1.1046,0.186 2.5631,0.1664 3.9084,-0.6973 0.2344,0.0272 0.4779,0.0312 0.7293,0.009 0.9057,-0.0828 1.6997,-0.3592 2.3874,-0.7475"
           style="fill:#c87048;fill-opacity:1;fill-rule:nonzero;stroke:none"
           id="path669" />
        <path
           d="m 319.7401,405.343 c -0.0343,0.1783 -0.0683,0.3543 -0.1026,0.5315 -0.6877,0.3883 -1.4817,0.6647 -2.3874,0.7475 -0.2514,0.0224 -0.4949,0.0184 -0.7293,-0.009 0.1755,-0.1117 0.3481,-0.2384 0.5176,-0.3807 0.0575,-0.002 0.1162,-0.006 0.1752,-0.0111 0.9768,-0.0887 1.815,-0.4198 2.5265,-0.8784"
           style="fill:#a3573b;fill-opacity:1;fill-rule:nonzero;stroke:none"
           id="path671" />
        <path
           d="m 388.1055,417.7919 c 0,0 0.8051,2.9427 3.5788,4.1973 4.3693,1.9794 9.7832,-1.3451 8.9696,-8.4232 -0.6055,-5.2529 -5.2475,-8.1329 -8.4591,-7.5339 -2.6334,0.4898 -3.6547,3.0036 -3.6547,3.0036 z"
           style="fill:#e7b699;fill-opacity:1;fill-rule:nonzero;stroke:none"
           id="path673" />
        <path
           d="m 398.317,415.2892 c -0.003,0.1687 -0.0187,0.339 -0.0473,0.5094 -0.1596,0.9538 -0.7254,1.9148 -1.5063,2.5821 -0.7832,0.6689 -1.7666,1.0425 -2.7746,0.873 -0.2503,-0.0422 -0.5051,-0.1179 -0.7582,-0.233 -1.916,-0.8628 -2.8647,-2.5761 -3.3381,-4.0969 -0.2362,-0.7585 -0.3507,-1.4658 -0.4051,-1.9811 -0.0278,-0.258 -0.0405,-0.4672 -0.0462,-0.6117 -0.006,-0.1446 -0.005,-0.2211 -0.005,-0.2211 0.001,-0.1106 -0.0876,-0.2022 -0.1978,-0.2033 -0.1117,-0.001 -0.2022,0.0876 -0.2033,0.1982 -3e-4,0.0133 -0.017,1.3561 0.474,2.9383 0.4901,1.5787 1.4958,3.4141 3.556,4.3441 0.2852,0.1282 0.5729,0.2149 0.8575,0.2628 1.1509,0.1928 2.2527,-0.2355 3.102,-0.9638 0.8504,-0.7288 1.4624,-1.7597 1.6418,-2.821 0.032,-0.1896 0.0499,-0.3804 0.0524,-0.5709 0.001,-0.1114 -0.0876,-0.2018 -0.1981,-0.2041 -0.1114,-10e-4 -0.2018,0.0876 -0.2033,0.199"
           style="fill:#b47157;fill-opacity:1;fill-rule:nonzero;stroke:none"
           id="path675" />
        <path
           d="m 391.0791,421.6728 c 0.191,0.1145 0.3923,0.2203 0.6052,0.3164 0.3846,0.1746 0.7786,0.3075 1.1746,0.4019 -0.3963,-0.093 -0.7891,-0.2259 -1.1749,-0.4005 -0.2126,-0.0961 -0.4142,-0.2024 -0.6044,-0.3164 3e-4,-10e-4 3e-4,-10e-4 -5e-4,-10e-4"
           style="fill:#591611;fill-opacity:1;fill-rule:nonzero;stroke:none"
           id="path677" />
        <path
           d="m 393.1143,405.9853 c 0.2682,4.5627 -0.6321,9.9431 -0.6321,9.9431 0.0975,1.3402 0.436,2.3703 0.9096,3.1601 -0.053,-0.021 -0.1074,-0.0434 -0.1612,-0.0678 -0.8947,-0.4025 -1.5778,-0.991 -2.1,-1.6574 0.3048,-2.1095 0.6432,-4.335 1.0395,-6.6886 0.2764,-1.6418 0.4034,-3.2018 0.3889,-4.6834 0.1823,-0.01 0.3694,-0.008 0.5553,-0.006 z m -2.0608,11.9129 c 0.5228,0.593 1.1824,1.114 2.0112,1.489 0.2302,0.1032 0.4618,0.1798 0.692,0.2305 0.9893,1.2569 2.3607,1.7529 3.4656,1.9389 0.0989,0.0167 0.1967,0.0309 0.2911,0.0425 -1.2725,0.8093 -2.7842,1.1189 -4.2738,0.868 -0.1267,-0.0213 -0.254,-0.0471 -0.3807,-0.076 -0.396,-0.0944 -0.79,-0.2273 -1.1746,-0.4019 -0.2129,-0.0961 -0.4142,-0.2019 -0.6052,-0.3164 0.008,-1.9675 -0.0825,-3.1895 -0.0913,-3.3046 v 0 l -3e-4,-0.006 c 0.0218,-0.1553 0.0431,-0.3084 0.066,-0.4643"
           style="fill:#c87048;fill-opacity:1;fill-rule:nonzero;stroke:none"
           id="path679" />
        <path
           d="m 391.1306,417.3633 c 0.5222,0.6664 1.2053,1.2549 2.1,1.6574 0.0538,0.0244 0.1082,0.0468 0.1612,0.0678 0.1151,0.1902 0.2367,0.3662 0.3649,0.5292 -0.2302,-0.0507 -0.4618,-0.1273 -0.692,-0.2305 -0.8288,-0.375 -1.4884,-0.896 -2.0112,-1.489 0.0256,-0.1777 0.0511,-0.3552 0.0771,-0.5349"
           style="fill:#a3573b;fill-opacity:1;fill-rule:nonzero;stroke:none"
           id="path681" />
        <path
           d="m 360.5479,380.9925 c -19.0737,-3.2113 -36.517,-0.6185 -39.5997,17.6902 -3.2493,19.2986 -7.3185,29.1611 -2.2232,40.5411 4.8226,10.7711 13.1054,16.1036 28.8612,18.7566 15.7556,2.6526 25.3253,0.326 33.4086,-8.2721 8.5411,-9.0839 7.926,-19.7351 11.1753,-39.0336 3.0827,-18.3087 -12.5473,-26.4705 -31.6222,-29.6822"
           style="fill:#e7b699;fill-opacity:1;fill-rule:nonzero;stroke:none"
           id="path683" />
        <path
           d="m 390.9875,418.3625 3e-4,0.006 v 0 c -9e-4,-0.002 -6e-4,-0.005 -3e-4,-0.006 z"
           style="fill:#b95732;fill-opacity:1;fill-rule:nonzero;stroke:none"
           id="path685" />
        <path
           d="m 390.9872,418.3591 c -10.7901,1.6744 -5.0814,10.4414 -13.3877,16.8423 -5.5021,4.2398 -8.9714,2.217 -18.4944,2.3721 -7.257,0.1171 -9.0621,5.7948 -9.0621,5.7948 0,0 1.9942,-6.8006 9.2515,-6.919 9.5227,-0.1531 12.992,1.8688 18.4943,-2.3721 8.3061,-6.3998 2.4083,-14.0437 13.1984,-15.7181 m 0,0 3e-4,0.003 v 0 c -6e-4,-0.002 -3e-4,-0.003 -3e-4,-0.003 z m -71.0271,-11.8023 c 8.9977,5.0451 1.2421,10.3082 6.91,18.947 3.81,5.8091 7.7502,5.0347 16.6975,8.2976 6.8181,2.4883 6.4754,9.5669 6.4754,9.5669 0,0 0.1537,-5.9558 -6.6648,-8.4427 -8.9467,-3.2652 -12.8871,-2.4899 -16.6975,-8.2975 -5.6676,-8.6398 2.2737,-14.9936 -6.7206,-20.0713"
           style="fill:#c87048;fill-opacity:1;fill-rule:nonzero;stroke:none"
           id="path687" />
        <path
           d="m 356.5868,405.7342 0.3971,-2.359 c 0.0187,-0.11 -0.055,-0.2132 -0.1647,-0.2319 -0.1085,-0.0181 -0.212,0.0553 -0.2304,0.1653 l -0.3971,2.359 c -0.0188,0.1099 0.0549,0.2128 0.1638,0.2313 0.1094,0.0184 0.2129,-0.0547 0.2313,-0.1647"
           style="fill:#b47157;fill-opacity:1;fill-rule:nonzero;stroke:none"
           id="path689" />
        <path
           d="m 365.0822,415.7549 c 0.9043,2.4202 3.0439,4.3081 5.7759,4.7682 3.443,0.5788 6.7306,-1.2861 8.0878,-4.335 0.1352,-0.3036 -0.002,-0.6608 -0.3056,-0.7954 -0.305,-0.1358 -0.6607,5e-4 -0.7965,0.3055 -1.1367,2.5543 -3.8973,4.1233 -6.7853,3.6358 -2.2943,-0.3864 -4.0856,-1.969 -4.8478,-4.0014 -0.1162,-0.3121 -0.4643,-0.4706 -0.7756,-0.3529 -0.312,0.1159 -0.4702,0.4631 -0.3529,0.7752"
           style="fill:#4b2317;fill-opacity:1;fill-rule:nonzero;stroke:none"
           id="path691" />
        <path
           d="m 376.5501,415.5338 c 0.4827,-2.8661 -1.2393,-5.5448 -3.8444,-5.9833 -2.6053,-0.4388 -5.1083,1.5287 -5.5907,4.3945 -0.4828,2.8664 1.2379,5.5449 3.8432,5.9837 2.6053,0.4385 5.1094,-1.5285 5.5919,-4.3949"
           style="fill:#4b2317;fill-opacity:1;fill-rule:nonzero;stroke:none"
           id="path693" />
        <path
           d="m 364.1924,423.1789 c 0.9695,2.152 3.1394,3.8267 5.8544,4.2848 2.7159,0.4564 5.315,-0.4155 6.9353,-2.1314 0.1522,-0.1607 0.1443,-0.4152 -0.0173,-0.5674 -0.1619,-0.152 -0.4161,-0.1455 -0.5681,0.0164 -1.4133,1.5018 -3.7491,2.3071 -6.2166,1.8907 -2.467,-0.4144 -4.4102,-1.94 -5.2538,-3.8222 -0.0907,-0.2024 -0.3288,-0.292 -0.5315,-0.2013 -0.2024,0.0907 -0.2931,0.3288 -0.2024,0.5304"
           style="fill:#4b2317;fill-opacity:1;fill-rule:nonzero;stroke:none"
           id="path695" />
        <path
           d="m 377.1811,417.8523 0.008,0.006 c 0.1137,0.0793 1.2393,0.9365 1.8649,2.4463 0.0851,0.2049 0.3204,0.3027 0.5256,0.2168 0.2041,-0.0853 0.3016,-0.3206 0.2157,-0.5258 -0.7679,-1.8363 -2.1217,-2.7766 -2.1535,-2.8026 -0.1825,-0.1262 -0.4331,-0.0817 -0.5601,0.0995 -0.127,0.1822 -0.0816,0.4334 0.0998,0.5601"
           style="fill:#4b2317;fill-opacity:1;fill-rule:nonzero;stroke:none"
           id="path697" />
        <path
           d="m 386.375,402.2413 c 3.257,0.5485 5.4527,3.6343 4.9045,6.8896 -0.5483,3.2573 -3.6335,5.4539 -6.8905,4.9057 -3.2564,-0.5483 -5.4521,-3.6343 -4.9036,-6.8913 0.5482,-3.2553 3.6331,-5.4522 6.8896,-4.904"
           style="fill:#e17653;fill-opacity:1;fill-rule:nonzero;stroke:none"
           id="path699" />
        <path
           d="m 343.9511,411.5846 c -1.3859,1.671 -3.5966,2.5795 -5.8907,2.1934 -2.8888,-0.4852 -4.983,-2.8717 -5.2217,-5.6576 -0.0272,-0.3322 -0.3192,-0.5777 -0.6517,-0.5491 -0.3311,0.0275 -0.5777,0.32 -0.549,0.6514 0.2837,3.3253 2.7799,6.1639 6.2223,6.7445 2.732,0.4598 5.3719,-0.6231 7.0188,-2.6138 0.2129,-0.2569 0.1769,-0.6364 -0.0796,-0.8485 -0.2565,-0.2128 -0.6364,-0.1771 -0.8484,0.0797"
           style="fill:#4b2317;fill-opacity:1;fill-rule:nonzero;stroke:none"
           id="path701" />
        <path
           d="m 334.116,408.3891 c 0.4825,-2.8661 2.9863,-4.8334 5.5919,-4.3945 2.605,0.4385 4.3257,3.1169 3.8429,5.983 -0.4824,2.8664 -2.9854,4.8337 -5.5905,4.3952 -2.6053,-0.4388 -4.327,-3.1176 -3.8443,-5.9837"
           style="fill:#4b2317;fill-opacity:1;fill-rule:nonzero;stroke:none"
           id="path703" />
        <path
           d="m 342.703,419.108 c -1.4134,1.5021 -3.7491,2.3074 -6.2155,1.891 -2.4682,-0.4144 -4.4113,-1.9403 -5.2546,-3.8222 -0.091,-0.2027 -0.3288,-0.292 -0.5318,-0.2013 -0.2027,0.0907 -0.2931,0.3286 -0.2021,0.5301 0.9689,2.1521 3.1394,3.8271 5.8552,4.2851 2.7151,0.4564 5.3141,-0.4155 6.9341,-2.1316 0.152,-0.1607 0.1446,-0.415 -0.0172,-0.5672 -0.1619,-0.1522 -0.4162,-0.1454 -0.5681,0.0161"
           style="fill:#4b2317;fill-opacity:1;fill-rule:nonzero;stroke:none"
           id="path705" />
        <path
           d="m 332.5416,409.5989 c -0.0388,0.0142 -1.6256,0.4592 -2.9525,1.9429 -0.1486,0.1658 -0.1333,0.4201 0.0314,0.5675 0.1656,0.1485 0.4204,0.1332 0.5675,-0.0326 0.5809,-0.6506 1.2308,-1.0814 1.7346,-1.3462 0.2522,-0.1318 0.466,-0.2228 0.6159,-0.2809 l 0.1701,-0.0609 0.0428,-0.0128 0.009,-0.003 c 0.2128,-0.0604 0.3378,-0.2829 0.2775,-0.4967 -0.0607,-0.2128 -0.2826,-0.3381 -0.4967,-0.2775"
           style="fill:#4b2317;fill-opacity:1;fill-rule:nonzero;stroke:none"
           id="path707" />
        <path
           d="m 329.1857,392.6123 c 3.2559,0.5482 5.4516,3.634 4.9034,6.8893 -0.5482,3.2573 -3.6335,5.4539 -6.8894,4.9057 -3.2575,-0.5485 -5.453,-3.6343 -4.9047,-6.8913 0.5482,-3.2553 3.6334,-5.4522 6.8907,-4.9037"
           style="fill:#e17653;fill-opacity:1;fill-rule:nonzero;stroke:none"
           id="path709" />
        <path
           d="m 351.1814,395.9827 c -0.2747,0.2509 -0.0961,0.707 0.2764,0.7007 1.148,-0.0181 3.4911,0.0236 6.3618,0.5069 2.8726,0.4836 5.0981,1.2112 6.177,1.6044 0.3498,0.1278 0.6678,-0.2447 0.4906,-0.5715 -0.4767,-0.8835 -1.9332,-2.2365 -6.3402,-2.9786 -4.4079,-0.7421 -6.226,0.0595 -6.9656,0.7381"
           style="fill:#e95049;fill-opacity:1;fill-rule:nonzero;stroke:none"
           id="path711" />
        <path
           d="m 350.043,443.3683 c 0,0 0.1537,-5.9558 -6.6648,-8.4427 -8.9467,-3.2652 -12.8871,-2.4899 -16.6975,-8.2975 -5.752,-8.7679 2.5127,-15.1824 -7.1342,-20.2978 0,0 -9.0853,20.6861 -1.6322,36.9669 6.2717,13.7004 20.8168,16.0333 29.2034,17.4453 8.3868,1.4122 22.894,3.971 33.3071,-6.9203 12.3726,-12.9424 10.5624,-35.4631 10.5624,-35.4631 -10.7901,1.6744 -5.0814,10.4414 -13.3877,16.8423 -5.5021,4.2398 -8.9714,2.217 -18.4944,2.3721 -7.257,0.1171 -9.0621,5.7948 -9.0621,5.7948"
           style="fill:#000000;fill-opacity:1;fill-rule:nonzero;stroke:none"
           id="path713" />
        <path
           d="m 391.3963,424.0491 0.1116,0.034 -0.0808,0.2724 c -0.0289,0.0151 -0.0569,0.0312 -0.085,0.0482 0.0187,-0.1173 0.0366,-0.2361 0.0542,-0.3546"
           style="fill:#606161;fill-opacity:1;fill-rule:nonzero;stroke:none"
           id="path715" />
        <path
           d="m 391.2355,424.0023 0.1608,0.0468 c -0.0176,0.1185 -0.0355,0.2373 -0.0542,0.3546 -0.1179,0.07 -0.2316,0.1528 -0.3427,0.2469 0.009,-0.176 0.0173,-0.3498 0.0238,-0.5196 0.0692,-0.0465 0.14,-0.0896 0.2123,-0.1287"
           style="fill:#606161;fill-opacity:1;fill-rule:nonzero;stroke:none"
           id="path717" />
        <path
           d="m 391.0232,424.131 c -0.006,0.1698 -0.015,0.3436 -0.0238,0.5196 -0.5423,0.4609 -1.0071,1.2047 -1.4635,2.1643 -0.5735,1.2007 -1.1384,2.726 -1.8771,4.4129 -0.5568,1.2694 -1.213,2.6283 -2.0498,4.0128 -0.0725,-0.1276 -0.1561,-0.2486 -0.2491,-0.3663 1.8592,-3.1186 2.8066,-6.1205 3.8131,-8.2323 0.5369,-1.1217 1.0925,-2.0064 1.8502,-2.511 z m -11.0455,17.0413 c 0.0496,0.1355 0.0984,0.2685 0.1474,0.3986 -0.1785,0.1451 -0.3605,0.2886 -0.5468,0.4317 0.003,-0.002 0.004,-0.005 0.007,-0.007 l 0.0136,-0.2835 -0.2838,-0.0138 c -0.5794,0.5281 -1.3025,1.0343 -2.1504,1.527 -0.0847,-0.0681 -0.1706,-0.1372 -0.2588,-0.2069 0.8561,-0.3206 1.6657,-0.7495 2.4222,-1.3309 0.2226,-0.1698 0.4389,-0.3427 0.65,-0.5154 z m -11.1662,2.8752 c 0.008,0.1361 0.0193,0.2699 0.0346,0.3994 -0.3495,0.0114 -0.7007,0.0233 -1.0562,0.038 -4.4776,0.1786 -9.3759,0.6951 -14.3884,4.4598 l -0.2801,-0.0397 0.0395,-0.2815 c 5.1012,-3.8364 10.1196,-4.3634 14.6134,-4.54 0.3487,-0.0136 0.6948,-0.0255 1.0372,-0.036"
           style="fill:#606161;fill-opacity:1;fill-rule:nonzero;stroke:none"
           id="path719" />
        <path
           d="m 379.5985,441.7123 -0.0136,0.2835 c -0.003,0.002 -0.004,0.005 -0.007,0.007 -0.5751,0.519 -1.2753,1.0145 -2.0837,1.4942 -0.1066,-0.0893 -0.2174,-0.18 -0.3303,-0.2713 0.8479,-0.4927 1.571,-0.9989 2.1504,-1.527 l 0.2838,0.0138 z m -10.0078,4.7535 c 0.0916,0.1159 0.1905,0.2236 0.298,0.3217 -2.2867,0.7994 -4.8138,1.5945 -7.4835,2.425 -8.174,2.5365 -9.7897,5.3258 -9.9346,5.6061 l -0.011,0.0221 v 0 c -0.0377,0.0868 -0.129,0.133 -0.2172,0.1182 -0.0161,-0.003 -0.0317,-0.008 -0.047,-0.0136 -0.1024,-0.0445 -0.1491,-0.1633 -0.1046,-0.265 0.0303,-0.0686 1.4122,-3.1286 10.1948,-5.8519 2.6036,-0.8061 5.0703,-1.5828 7.3051,-2.3626"
           style="fill:#606161;fill-opacity:1;fill-rule:nonzero;stroke:none"
           id="path721" />
        <path
           d="m 385.7613,447.4298 c 0.1216,0.0598 0.2432,0.1185 0.367,0.1758 -1.5678,2.2966 -3.3641,4.6621 -5.0187,6.1982 0.0119,-0.0649 0.0241,-0.1295 0.0352,-0.1944 0.0238,-0.1494 0.0436,-0.3008 0.0603,-0.4525 1.5041,-1.4867 3.1215,-3.6294 4.5562,-5.7271"
           style="fill:#606161;fill-opacity:1;fill-rule:nonzero;stroke:none"
           id="path723" />
        <path
           d="m 373.4186,458.4838 c 0.0686,0.1188 0.1392,0.2347 0.2112,0.3456 -3.7638,1.7506 -7.863,2.5789 -12.1079,2.1086 -0.004,-8e-4 -0.007,-10e-4 -0.0113,-0.002 -0.1046,-0.0176 -0.1772,-0.1143 -0.1656,-0.2209 0.0119,-0.1097 0.112,-0.189 0.2214,-0.1771 4.1465,0.46 8.1584,-0.3433 11.8522,-2.0543"
           style="fill:#606161;fill-opacity:1;fill-rule:nonzero;stroke:none"
           id="path725" />
        <path
           d="m 401.7988,424.9502 0.2651,0.1049 c 0.5992,1.4117 2.2997,3.7293 1.8456,6.4514 -0.2064,1.2331 -0.8629,2.5347 -2.2357,3.8429 -1.8343,1.7513 -3.8846,2.1818 -5.811,2.1818 -1.9273,0 -3.7525,-0.4115 -5.1772,-0.3588 -0.6483,0.0244 -1.2007,0.1363 -1.6566,0.4104 0.0465,-0.172 0.0924,-0.3472 0.1364,-0.5184 0.4547,-0.1931 0.9649,-0.2758 1.5057,-0.2931 1.0066,-0.0357 2.145,0.1383 3.3483,0.2557 2.4143,0.2321 5.0485,0.2494 7.3769,-1.9684 1.3238,-1.2631 1.9247,-2.4778 2.1181,-3.6187 0.428,-2.5161 -1.1719,-4.7401 -1.8204,-6.2255 z"
           style="fill:#606161;fill-opacity:1;fill-rule:nonzero;stroke:none"
           id="path727" />
        <path
           d="m 389.1654,437.0644 c -0.044,0.1712 -0.0899,0.3464 -0.1364,0.5184 -0.2143,0.1282 -0.4073,0.2917 -0.5779,0.4986 -0.0701,0.0837 -0.1392,0.1681 -0.2087,0.2555 -0.0768,-0.0199 -0.155,-0.0363 -0.2361,-0.0499 -0.0692,-0.0117 -0.1406,-0.0216 -0.214,-0.0281 0.1168,-0.1483 0.2321,-0.2931 0.3489,-0.4334 0.2906,-0.3524 0.6373,-0.5973 1.0242,-0.7611 z m -6.5035,8.3534 c 0.1014,0.0808 0.2069,0.163 0.3177,0.2472 -0.7021,0.9031 -1.4672,1.8218 -2.313,2.7334 -0.0431,-0.1539 -0.0871,-0.3038 -0.1316,-0.4493 0.7722,-0.8444 1.4763,-1.6934 2.1269,-2.5313"
           style="fill:#606161;fill-opacity:1;fill-rule:nonzero;stroke:none"
           id="path729" />
        <path
           d="m 403.27,413.7327 c 0.1692,0.0479 0.381,0.1108 0.6217,0.193 0.513,0.8173 0.89,1.8661 0.6888,3.0657 -0.2741,1.6557 -1.1651,2.5478 -2.1555,3.1399 -0.2857,0.1727 -0.5794,0.3235 -0.8705,0.4652 0.1324,-0.2078 0.2551,-0.4218 0.3651,-0.6398 1.0627,-0.5782 1.9743,-1.3408 2.2646,-3.0319 0.197,-1.169 -0.2177,-2.1875 -0.7605,-2.9792 -0.0502,-0.0729 -0.1018,-0.144 -0.1537,-0.2129 z m -4.6295,9.3852 c -0.0173,0.0695 -0.0326,0.1415 -0.0451,0.216 -0.0879,0.521 -0.0689,1.1761 0.1026,2.0115 0.1857,0.9025 0.22,1.7079 0.0967,2.44 -0.2608,1.5622 -1.2493,2.7525 -2.888,3.7783 -1.4836,0.9304 -3.5084,1.7496 -6.0848,2.6451 0.0309,-0.1537 0.0612,-0.3053 0.091,-0.457 2.4605,-0.8614 4.3886,-1.6543 5.7793,-2.5279 1.5885,-1.0012 2.4638,-2.0812 2.7062,-3.5051 0.1131,-0.6715 0.0845,-1.4266 -0.0941,-2.2929 -0.1732,-0.8453 -0.2016,-1.535 -0.1126,-2.1107 0.1449,-0.0589 0.2914,-0.123 0.4403,-0.193 0.002,-9e-4 0.005,-0.003 0.008,-0.004"
           style="fill:#606161;fill-opacity:1;fill-rule:nonzero;stroke:none"
           id="path731" />
        <path
           d="m 401.9797,411.9605 c 0.0275,0.004 0.0544,0.0144 0.0791,0.0306 0.0107,0.008 0.7523,0.5102 1.4417,1.3824 0.1343,0.1704 0.2667,0.3549 0.3912,0.5522 -0.2407,-0.0822 -0.4525,-0.1451 -0.6217,-0.193 -0.5088,-0.6744 -1.0806,-1.1432 -1.3209,-1.3241 l -0.1165,-0.0842 c -0.0913,-0.0623 -0.1151,-0.187 -0.0525,-0.2792 0.0454,-0.0669 0.1239,-0.0975 0.1996,-0.0847 z m -0.0601,7.9962 c -0.11,0.218 -0.2327,0.432 -0.3651,0.6398 -0.7209,0.3498 -1.427,0.6449 -1.963,1.0698 -0.4538,0.3597 -0.7923,0.7948 -0.951,1.4516 -0.004,0.002 -0.006,0.003 -0.008,0.004 -0.1489,0.07 -0.2954,0.1341 -0.4403,0.193 0.002,-0.0161 0.004,-0.0323 0.007,-0.0479 0.1457,-0.8784 0.5845,-1.4794 1.1444,-1.9165 0.561,-0.4405 1.237,-0.7333 1.9006,-1.0511 0.2293,-0.1114 0.4561,-0.2222 0.6758,-0.343"
           style="fill:#606161;fill-opacity:1;fill-rule:nonzero;stroke:none"
           id="path733" />
        <path
           d="m 389.9129,433.7518 c -0.0298,0.1517 -0.0601,0.3033 -0.091,0.457 -0.2772,0.0958 -0.5596,0.1927 -0.849,0.2908 -0.0326,0.011 -0.0658,0.013 -0.0978,0.008 -0.0703,-0.0116 -0.1332,-0.0609 -0.157,-0.1338 -0.036,-0.1045 0.0204,-0.2188 0.1261,-0.2548 0.366,-0.1236 0.7231,-0.2463 1.0687,-0.3668"
           style="fill:#606161;fill-opacity:1;fill-rule:nonzero;stroke:none"
           id="path735" />
        <path
           d="m 317.3037,411.5738 c -0.0221,0.1191 -0.0445,0.2393 -0.0657,0.3592 -0.023,-0.0278 -0.0465,-0.0547 -0.0709,-0.0808 l 0.0127,-0.284 0.1239,0.006 z"
           style="fill:#606161;fill-opacity:1;fill-rule:nonzero;stroke:none"
           id="path737" />
        <path
           d="m 317.4639,411.5809 c 0.0555,0.061 0.108,0.1247 0.1584,0.1914 -0.0496,0.1635 -0.098,0.3285 -0.1477,0.4988 -0.0725,-0.1227 -0.151,-0.2349 -0.2366,-0.3381 0.0212,-0.1199 0.0436,-0.2401 0.0657,-0.3592 l 0.1602,0.007 z"
           style="fill:#606161;fill-opacity:1;fill-rule:nonzero;stroke:none"
           id="path739" />
        <path
           d="m 317.6223,411.7723 c 0.5508,0.7248 0.7858,1.7427 0.9261,2.9783 0.1519,1.3502 0.184,2.9753 0.3294,4.7977 0.2914,3.6456 1.0293,8.0747 4.0459,12.6422 2.1413,3.2519 5.9363,4.4081 10.1319,6.0474 4.1881,1.6384 8.7573,3.7797 12.3207,9.0749 l -0.0535,0.2789 -0.2787,-0.0544 c -3.5033,-5.1985 -7.9625,-7.2905 -12.1348,-8.9252 -2.9619,-1.1628 -5.7895,-2.0849 -7.9863,-3.7446 -0.8538,-0.9283 -1.5305,-1.8167 -1.9905,-2.6623 l -0.2727,-0.0799 -0.08,0.2724 c 0.002,0.003 0.003,0.006 0.004,0.009 -4.5967,-6.9627 -3.9858,-13.6412 -4.4354,-17.6111 -0.1167,-1.0562 -0.3123,-1.9108 -0.6738,-2.524 0.0497,-0.1703 0.0981,-0.3353 0.1477,-0.4988"
           style="fill:#606161;fill-opacity:1;fill-rule:nonzero;stroke:none"
           id="path741" />
        <path
           d="m 322.6598,432.1253 0.2727,0.0799 c 0.46,0.8456 1.1367,1.734 1.9905,2.6623 2.6135,2.8429 6.8947,6.071 11.7649,9.6509 7.4066,5.4493 7.7113,8.793 7.7164,8.8676 0.009,0.1108 -0.0745,0.2078 -0.1853,0.2163 -0.0168,5e-4 -0.0332,0 -0.0491,-0.003 -0.0884,-0.015 -0.1593,-0.0884 -0.1664,-0.1828 l -0.003,-0.0244 -0.0181,-0.1006 c -0.0196,-0.0922 -0.0559,-0.2342 -0.123,-0.4221 -0.1338,-0.3776 -0.389,-0.9442 -0.874,-1.6821 -0.9697,-1.4771 -2.8604,-3.6405 -6.5358,-6.3453 -6.4599,-4.7597 -11.8987,-8.862 -13.8654,-12.4362 -6e-4,-0.002 -0.002,-0.006 -0.004,-0.009 l 0.08,-0.2724 z"
           style="fill:#606161;fill-opacity:1;fill-rule:nonzero;stroke:none"
           id="path743" />
        <path
           d="m 313.0169,427.4546 c 0.0822,0.0137 0.1491,0.0774 0.1644,0.1633 8e-4,10e-4 0.1176,0.6687 0.3379,1.7487 0.2188,1.0811 0.5397,2.573 0.9459,4.2146 0.8101,3.2833 1.9672,7.175 3.3148,9.5649 0.1106,0.1962 0.2231,0.3915 0.3376,0.5851 0.9171,1.9142 1.9985,3.6005 3.2015,5.0896 -1.4749,-1.652 -2.7748,-3.4982 -3.8889,-5.4771 -2.7623,-4.9139 -4.6391,-15.6458 -4.644,-15.6563 -0.0187,-0.1097 0.0533,-0.2135 0.163,-0.2322 0.0238,-0.005 0.0468,-0.004 0.0678,-6e-4"
           style="fill:#606161;fill-opacity:1;fill-rule:nonzero;stroke:none"
           id="path745" />
        <path
           d="m 318.1175,443.7312 c 3.5159,5.9564 8.7367,10.5721 15.4154,12.0866 0.1086,0.025 0.176,0.1324 0.1514,0.2401 -0.0233,0.1046 -0.1245,0.1721 -0.2288,0.1545 -0.004,-8e-4 -0.007,-10e-4 -0.0119,-0.002 -4.8262,-1.0953 -8.8968,-3.776 -12.1246,-7.3896 -1.203,-1.4891 -2.2844,-3.1754 -3.2015,-5.0896"
           style="fill:#606161;fill-opacity:1;fill-rule:nonzero;stroke:none"
           id="path747" />
        <path
           d="m 307.1727,409.0175 0.0125,0.2841 c -1.0993,1.1911 -3.3395,2.7697 -3.7576,5.2863 -0.1922,1.141 -0.021,2.486 0.8152,4.1125 1.1081,2.1467 2.7828,3.1519 4.5505,3.7684 1.7676,0.6168 3.6147,0.8203 5.0224,1.362 0.5054,0.1934 0.9604,0.4388 1.3266,0.7699 -0.0145,0.1763 -0.0275,0.3569 -0.0408,0.5346 -0.341,-0.4082 -0.8263,-0.6947 -1.4309,-0.9303 -0.8859,-0.3433 -2.0087,-0.553 -3.1964,-0.8385 -2.372,-0.5692 -5.0394,-1.4709 -6.5888,-4.4821 -0.8689,-1.6855 -1.063,-3.1306 -0.8541,-4.3631 0.4623,-2.7207 2.8281,-4.3537 3.8565,-5.4913 z"
           style="fill:#606161;fill-opacity:1;fill-rule:nonzero;stroke:none"
           id="path749" />
        <path
           d="m 315.1423,424.6007 c 0.3121,0.2815 0.5596,0.6268 0.7186,1.0548 1.6724,4.4889 2.3958,11.3737 7.3749,18.2568 v 0 l -0.0451,0.2806 -0.2806,-0.045 c -5.0403,-6.9701 -5.7773,-13.9493 -7.4257,-18.3521 -0.0935,-0.2514 -0.2222,-0.4691 -0.3829,-0.6605 0.0133,-0.1777 0.0263,-0.3583 0.0408,-0.5346"
           style="fill:#606161;fill-opacity:1;fill-rule:nonzero;stroke:none"
           id="path751" />
        <path
           d="m 309.4549,397.9375 c -0.8467,0.5686 -1.6935,1.4405 -1.9083,2.7161 -0.2537,1.5384 0.2256,2.5056 0.9215,3.3503 0.0757,0.0916 0.1539,0.1806 0.2345,0.2684 0.0337,0.2424 0.0788,0.4822 0.1369,0.722 -1.0273,-1.0176 -2.0571,-2.2626 -1.6895,-4.4076 0.2033,-1.1984 0.9023,-2.0644 1.6537,-2.6691 0.2529,9e-4 0.474,0.01 0.6512,0.0199 z m 1.3028,10.379 c 0.005,0.004 0.009,0.008 0.013,0.0122 0.1151,0.1123 0.2305,0.2194 0.347,0.3212 -0.1041,0.574 -0.3572,1.2175 -0.7991,1.9616 -0.4524,0.7599 -0.7265,1.4641 -0.8396,2.1356 -0.2379,1.4247 0.2361,2.7317 1.4091,4.1981 1.0281,1.281 2.5903,2.6614 4.6326,4.2809 -0.0212,0.153 -0.0428,0.3064 -0.0632,0.4615 -2.1413,-1.6895 -3.7862,-3.1269 -4.8824,-4.4915 -1.2138,-1.5061 -1.7575,-2.9543 -1.4924,-4.5156 0.1233,-0.7322 0.4195,-1.4823 0.8901,-2.2743 0.4359,-0.7327 0.6681,-1.3456 0.756,-1.8666 0.0127,-0.0759 0.0223,-0.1511 0.0289,-0.2231"
           style="fill:#606161;fill-opacity:1;fill-rule:nonzero;stroke:none"
           id="path753" />
        <path
           d="m 311.2554,396.6849 c 0.0757,0.0127 0.1398,0.0674 0.1608,0.1454 0.0289,0.1077 -0.0343,0.2174 -0.1412,0.2466 l -0.1375,0.0417 c -0.0901,0.0286 -0.2208,0.0745 -0.3793,0.1374 -0.3169,0.1253 -0.7458,0.3229 -1.1857,0.6049 -0.0391,0.0253 -0.0785,0.0502 -0.1176,0.0766 -0.1772,-0.01 -0.3983,-0.019 -0.6512,-0.0199 0.1823,-0.1465 0.3694,-0.2786 0.552,-0.3957 0.9368,-0.5981 1.8019,-0.8297 1.815,-0.8339 0.0286,-0.007 0.0572,-0.008 0.0847,-0.003 z m -2.5528,7.5874 c 0.6593,0.7237 1.4524,1.3493 1.9689,2.1484 0.3869,0.5964 0.6038,1.3079 0.4535,2.1855 -0.002,0.0148 -0.005,0.0298 -0.007,0.0437 -0.1165,-0.1018 -0.2319,-0.2089 -0.347,-0.3212 -0.004,-0.004 -0.008,-0.008 -0.013,-0.0122 0.0637,-0.6721 -0.114,-1.1916 -0.4244,-1.6789 -0.3452,-0.5392 -0.8651,-1.0233 -1.3963,-1.5466 -0.0329,-0.032 -0.0647,-0.0646 -0.0975,-0.0967 -0.0581,-0.2398 -0.1032,-0.4796 -0.1369,-0.722"
           style="fill:#606161;fill-opacity:1;fill-rule:nonzero;stroke:none"
           id="path755" />
        <path
           d="m 315.5207,421.2261 c 0.2875,0.227 0.5845,0.46 0.8898,0.6965 v 0 c 0.0882,0.0685 0.1041,0.1953 0.0357,0.2823 -0.0462,0.0609 -0.1219,0.0867 -0.1922,0.0751 -0.0309,-0.005 -0.0626,-0.0184 -0.0898,-0.0394 -0.2412,-0.1877 -0.4765,-0.3716 -0.7067,-0.553 0.0204,-0.1551 0.042,-0.3085 0.0632,-0.4615"
           style="fill:#606161;fill-opacity:1;fill-rule:nonzero;stroke:none"
           id="path757" />
        <path
           d="m 381.263,444.1918 c 0,0 3.5251,3.5442 7.2377,4.1814 3.7105,0.6355 7.5999,-0.8461 8.1816,-3.0447 0.5289,-2.0007 -3.3928,-5.4244 -6.298,-5.4927 0,0 -1.2748,-1.9624 -3.572,-1.5318 -2.7683,0.5179 -5.5493,5.8878 -5.5493,5.8878"
           style="fill:#fedf74;fill-opacity:1;fill-rule:nonzero;stroke:none"
           id="path759" />
        <path
           d="m 385.5991,441.5995 c 1.1979,0.2019 1.8224,1.0466 1.8224,1.0466 0.3773,-0.0814 0.7656,-0.0763 1.1449,-0.0125 1.5835,0.2667 3.0243,1.5678 2.9458,2.0336 -0.1313,0.7798 -2.2204,1.9808 -5.1701,1.631 -0.1471,-0.0181 -0.2914,-0.0394 -0.4334,-0.0632 -2.7233,-0.4586 -4.6457,-2.0432 -4.6457,-2.0432 v 0 c 0,0 0.2982,-0.3135 0.7472,-0.8254 0.7489,-0.7583 1.9341,-1.7706 2.9514,-1.8074 0.2282,-0.009 0.4405,0.007 0.6375,0.0405"
           style="fill:#fdd151;fill-opacity:1;fill-rule:nonzero;stroke:none"
           id="path761" />
        <path
           d="m 381.263,444.1918 c 0,0 -2.0007,-3.8863 -2.3301,-7.2924 -0.3595,-3.7015 1.8164,-4.2026 3.8562,-3.568 2.7601,0.8581 4.0306,2.6266 2.5396,5.4559 -1.347,2.5529 -4.0657,5.4045 -4.0657,5.4045"
           style="fill:#fedf74;fill-opacity:1;fill-rule:nonzero;stroke:none"
           id="path763" />
        <path
           d="m 382.1505,435.8163 c 0.0927,0.0159 0.1885,0.0385 0.2888,0.0683 1.3879,0.4187 1.6597,1.6271 1.0951,3.3542 -0.7274,2.2249 -2.2714,4.953 -2.2714,4.953 0,0 -0.6469,-1.9817 -0.8938,-5.4813 -0.131,-1.863 0.4442,-3.1193 1.7813,-2.8942"
           style="fill:#fdd151;fill-opacity:1;fill-rule:nonzero;stroke:none"
           id="path765" />
        <path
           d="m 379.5627,445.4008 c 0,0 2.1955,4.4929 1.5821,8.2086 -0.6146,3.7136 -3.2885,6.9046 -5.5574,6.7328 -2.0622,-0.1553 -4.013,-4.9819 -3.1263,-7.7482 0,0 -1.4369,-1.8471 -0.2775,-3.8772 1.3958,-2.4463 7.3791,-3.316 7.3791,-3.316"
           style="fill:#fedf74;fill-opacity:1;fill-rule:nonzero;stroke:none"
           id="path767" />
        <path
           d="m 379.5627,445.4008 v 0 c 0,0 0.9624,2.5869 0.328,5.489 -0.6352,2.9021 -2.4554,4.4833 -3.2343,4.3523 -0.5774,-0.0972 -1.6041,-2.8233 -0.5698,-4.5269 0,0 -0.8047,-1.1755 -0.2217,-2.6816 0.3683,-0.9493 1.7127,-1.7376 2.6742,-2.1968 0.6305,-0.2554 1.0236,-0.436 1.0236,-0.436 z"
           style="fill:#fdd151;fill-opacity:1;fill-rule:nonzero;stroke:none"
           id="path769" />
        <path
           d="m 379.5627,445.4008 c 0,0 -3.0155,-3.1626 -6.1259,-4.589 -3.38,-1.552 -4.5663,0.3401 -4.6341,2.4752 -0.0933,2.8891 1.1619,4.6692 4.3234,4.1859 2.8534,-0.4368 6.4366,-2.0721 6.4366,-2.0721"
           style="fill:#fedf74;fill-opacity:1;fill-rule:nonzero;stroke:none"
           id="path771" />
        <path
           d="m 373.394,442.3669 c 0.3943,0.0666 0.8263,0.2007 1.2832,0.396 3.2261,1.3782 4.8855,2.6379 4.8855,2.6379 v 0 c 0,0 -3.0824,0.5661 -5.4224,0.525 -0.3223,-0.005 -0.6216,-0.0304 -0.8943,-0.0763 -1.2617,-0.2123 -1.9655,-0.8668 -1.9162,-2.0571 0.0488,-1.2093 0.8773,-1.6254 2.0642,-1.4255"
           style="fill:#fdd151;fill-opacity:1;fill-rule:nonzero;stroke:none"
           id="path773" />
        <path
           d="m 375.8771,438.423 c -0.883,0.6293 0.4292,3.4175 3.0643,7.4211 0.8767,1.3323 1.5704,2.2051 2.7819,3.1706 1.2651,2.2201 2.6688,2.552 3.2253,2.1549 0.5578,-0.396 0.7052,-1.8315 -0.9791,-3.7556 -0.5148,-1.4596 -1.1126,-2.4007 -2.0841,-3.6644 -2.9199,-3.8018 -5.125,-5.9547 -6.0083,-5.3266"
           style="fill:#ee8081;fill-opacity:1;fill-rule:nonzero;stroke:none"
           id="path775" />
      </g>
      <path
         d="m 180.0995,574.27733 c -2.1008,1.6399 -4.765,3.0742 -7.2244,3.9453 -2.4593,0.8711 -4.714,1.1786 -7.4296,0.6661 -2.7156,-0.5122 -5.8924,-1.8442 -7.6345,-2.9202 -1.7422,-1.0761 -2.0498,-1.8961 -2.4597,-0.8711 -0.4098,1.0247 -0.9221,3.8939 -2.6642,5.5338 -1.7422,1.6395 -4.7138,2.0494 -7.327,1.281 -2.6136,-0.7688 -4.8677,-2.7159 -6.4049,-2.5623 -1.5372,0.1539 -2.3567,2.408 -4.3552,5.0213 -1.9984,2.6136 -5.1752,5.5851 -7.8905,7.4299 -2.7159,1.8445 -4.9705,2.5617 -7.1223,2.9716 -2.1521,0.4098 -4.2015,0.5125 -6.4559,0.3585 -2.2547,-0.1536 -4.714,-0.5632 -10.0429,-1.4343 -5.329098,-0.8711 -13.526898,-2.2034 -18.445898,-4.97 -4.9189,-2.7672 -6.5585,-6.969 -8.8132,-12.3488 -2.2544,-5.3802 -5.1236,-11.9384 -5.0723,-18.3433 0.051,-6.4046 3.0229,-12.6558 16.2057,-22.1074 13.183098,-9.4516 36.577098,-22.104 55.586498,-25.9469 19.0095,-3.8427 33.6345,1.1236 42.5356,6.6812 8.9005,5.5576 12.0773,11.7063 12.1796,19.0846 0.1026,7.378 -2.8692,15.9862 -5.3799,21.725 -2.5109,5.7387 -4.5601,8.6079 -6.3535,10.9649 -1.7935,2.3571 -3.3305,4.2016 -5.4315,5.8411"
         style="fill:#ffffff;fill-opacity:1;fill-rule:evenodd;stroke:none"
         id="path777" />
    </g>
  </g>
</svg>
