<?xml version="1.0" encoding="UTF-8" standalone="no"?>
<!-- Created with Inkscape (http://www.inkscape.org/) -->

<svg
   width="200"
   height="200"
   viewBox="0 0 52.916665 52.916666"
   version="1.1"
   id="svg15360"
   inkscape:version="1.2.1 (9c6d41e410, 2022-07-14)"
   sodipodi:docname="faq.svg"
   xmlns:inkscape="http://www.inkscape.org/namespaces/inkscape"
   xmlns:sodipodi="http://sodipodi.sourceforge.net/DTD/sodipodi-0.dtd"
   xmlns="http://www.w3.org/2000/svg"
   xmlns:svg="http://www.w3.org/2000/svg">
  <sodipodi:namedview
     id="namedview15362"
     pagecolor="#ffffff"
     bordercolor="#000000"
     borderopacity="0.25"
     inkscape:showpageshadow="2"
     inkscape:pageopacity="0.0"
     inkscape:pagecheckerboard="0"
     inkscape:deskcolor="#d1d1d1"
     inkscape:document-units="mm"
     showgrid="false"
     inkscape:zoom="1.4324916"
     inkscape:cx="240.49007"
     inkscape:cy="175.56822"
     inkscape:window-width="1920"
     inkscape:window-height="991"
     inkscape:window-x="-9"
     inkscape:window-y="-9"
     inkscape:window-maximized="1"
     inkscape:current-layer="layer1" />
  <defs
     id="defs15357" />
  <g
     inkscape:label="Lapis 1"
     inkscape:groupmode="layer"
     id="layer1">
    <g
       id="g1433"
       transform="matrix(-0.35277776,0,0,-0.35277778,149.1914,172.72771)">
      <g
         id="g1435">
        <path
           d="m 325.6401,389.5458 c 0,0 -3.0285,-1.6387 -5.8334,-4.7177 -1.2801,-1.406 -2.6626,-2.7133 -4.1167,-3.9379 -2.9563,-2.4902 -7.8276,-6.3269 -13.629,-9.8785 1.2024,-0.2914 2.4038,-0.5981 3.6042,-0.9204 5.5491,-1.4901 11.0659,-3.3086 16.513,-5.2806 1.4816,1.0261 2.9324,2.1506 4.3302,3.3848 2.5478,2.2502 3.992,5.5072 3.8693,8.9028 -0.1534,4.2446 -1.0894,9.9281 -4.7376,12.4475"
           style="fill:#f19584;fill-opacity:1;fill-rule:nonzero;stroke:none"
           id="path1437" />
        <path
           d="m 326.5078,368.1941 c -1.3969,-1.2331 -2.8465,-2.3587 -4.3271,-3.3843 -1.5043,0.5446 -3.0141,1.0775 -4.5283,1.5951 2.3079,7.139 3.2312,15.6693 3.5648,19.8456 2.3202,2.1583 4.4249,3.295 4.4249,3.295 3.649,-2.5206 4.5805,-8.204 4.7359,-12.4466 0.1204,-3.394 -1.3216,-6.6538 -3.8702,-8.9048"
           style="fill:#ed736b;fill-opacity:1;fill-rule:nonzero;stroke:none"
           id="path1439" />
        <path
           d="m 374.9769,345.3987 c -0.116,2.0197 -0.4933,4.129 -1.2263,6.2947 -3e-4,-9e-4 -3e-4,-9e-4 -3e-4,-9e-4 -0.01,0.0301 -5.4349,18.3206 -4.7631,38.3071 0,0 -7.9588,3.5833 -13.7681,4.8861 l -23.2759,-0.851 c 0,0 -0.006,-0.002 -0.015,-0.006 -6.7569,-2.8001 -11.088,-9.4799 -10.8898,-16.7913 0.0963,-3.5368 0.1289,-7.6805 -0.002,-12.0158 12.6655,-4.5252 24.9687,-9.9462 36.4391,-14.0899 6.0871,-2.1991 11.9396,-4.0385 17.5009,-5.7328"
           style="fill:#474398;fill-opacity:1;fill-rule:nonzero;stroke:none"
           id="path1441" />
        <path
           d="m 371.1112,363.3644 c -1.0938,6.0849 -2.1279,14.0196 -2.1772,22.483 -0.0117,1.3723 0.008,2.7593 0.0535,4.1534 0,0 -2.3051,1.0366 -5.3447,2.1985 -2.6028,0.9927 -5.7455,2.0835 -8.4237,2.6867 l -23.2753,-0.8524 c 0,0 -0.006,-0.002 -0.0176,-0.007 -6.8419,-2.7079 -11.2206,-9.4544 -10.9363,-16.8072 0.0692,-1.7867 0.1196,-3.3973 0.1281,-4.443 0.0182,-2.3876 -10e-4,-4.9365 -0.0805,-7.5555 12.6652,-4.5255 24.9684,-9.9459 36.4385,-14.0896 4.546,-1.6421 8.9606,-3.0838 13.2214,-4.4144 1.4187,4.7829 1.6934,9.9264 0.7237,14.9786 -0.1035,0.5386 -0.2067,1.0959 -0.3099,1.6687"
           style="fill:#4c469a;fill-opacity:1;fill-rule:nonzero;stroke:none"
           id="path1443" />
        <path
           d="m 352.5355,364.1859 c -0.5315,-2.2776 -2.0951,-5.2891 -5.8617,-8.9336 -3.7129,1.4691 -7.4929,2.9973 -11.3247,4.5189 -1.1353,1.7428 -1.7397,3.2633 -2.0223,4.5462 -0.9581,4.3767 4.3093,7.3239 7.4288,4.1075 1.6557,-1.6994 2.175,-4.1528 2.175,-4.1528 0,0 0.5519,2.446 2.2343,4.1241 1.711,1.7181 4.0274,1.6189 5.6299,0.4771 1.3595,-0.9695 2.2048,-2.6878 1.7407,-4.6874"
           style="fill:#f1f4f7;fill-opacity:1;fill-rule:nonzero;stroke:none"
           id="path1445" />
        <path
           d="m 351.1845,364.767 c -0.4807,-4.0736 -3.4035,-7.2867 -7.198,-8.4464 -2.8445,1.1347 -5.7257,2.2947 -8.6374,3.4506 -1.1353,1.7428 -1.7397,3.2633 -2.0223,4.5462 -0.9581,4.3767 4.3093,7.3239 7.4288,4.1075 1.6557,-1.6994 2.175,-4.1528 2.175,-4.1528 0,0 0.5519,2.446 2.2343,4.1241 0.0167,0.0165 0.0343,0.0332 0.0519,0.0508 2.2869,2.2322 6.11,0.4317 6.0326,-2.7638 -0.007,-0.3033 -0.0283,-0.6086 -0.0649,-0.9162"
           style="fill:#ffffff;fill-opacity:1;fill-rule:nonzero;stroke:none"
           id="path1447" />
        <path
           d="m 355.2191,394.8857 c -1.2801,-2.128 -3.024,-3.5603 -4.7937,-4.5332 -3.7933,-2.0724 -8.3302,-2.2147 -12.3845,-0.7075 -5.2164,1.9383 -6.0977,4.3897 -6.0977,4.3897 l 1.1776,9.9837 19.4649,2.1512 2.1421,-9.1732 z"
           style="fill:#f19584;fill-opacity:1;fill-rule:nonzero;stroke:none"
           id="path1449" />
        <path
           d="m 354.7278,396.9964 c -7.3703,-1.766 -15.0295,-2.0285 -22.5456,-0.9369 l 0.9386,7.9589 19.4649,2.1512 z"
           style="fill:#ed736b;fill-opacity:1;fill-rule:nonzero;stroke:none"
           id="path1451" />
        <path
           d="m 359.0572,389.5943 c -2.1535,-1.5032 -4.7993,0.005 -4.7993,0.005 0.0734,-0.1327 0.1474,-0.2662 0.2109,-0.4023 1.8283,-3.725 -1.6779,-7.9081 -5.7164,-6.9245 -3.1263,0.7603 -4.5465,2.9427 -4.5465,2.9427 -0.8549,-2.2368 -2.3363,-3.1833 -3.729,-3.545 -3.3635,-0.8688 -6.5338,2.0911 -5.8926,5.5043 0.0266,0.1465 0.0465,0.2279 0.0465,0.2279 -2.0977,-0.4921 -3.494,-0.0391 -4.36,0.5292 -0.936,0.6115 -1.4802,1.6691 -1.5769,2.7919 -0.2818,3.3735 3.4135,4.695 3.4135,4.695 l -0.1636,-1.3853 c 0,0 0.8822,-2.452 6.0993,-4.3875 4.051,-1.5057 8.589,-1.366 12.3823,0.7081 1.768,0.9729 3.5153,2.4044 4.7937,4.5318 l -0.2934,1.256 c 0.2347,0.0116 0.4578,0.0148 0.6707,0.0102 2.8261,-0.0309 4.0881,-1.1083 4.6372,-2.2198 0.75,-1.5137 0.2029,-3.3746 -1.1764,-4.3381"
           style="fill:#fdcf39;fill-opacity:1;fill-rule:nonzero;stroke:none"
           id="path1453" />
        <path
           d="m 356.2603,391.1304 c -1.7694,-1.2359 -3.9459,0.009 -3.9459,0.009 0.0618,-0.1119 0.1185,-0.2233 0.1749,-0.3336 1.5041,-3.0662 -1.3833,-6.5078 -4.7027,-5.6993 -2.5766,0.6267 -3.7451,2.4222 -3.7451,2.4222 -0.7033,-1.8374 -1.9216,-2.6173 -3.0682,-2.9135 -2.7649,-0.7163 -5.3722,1.7153 -4.8464,4.5272 0.0232,0.116 0.0368,0.1849 0.0368,0.1849 -1.7254,-0.402 -2.8731,-0.0338 -3.5818,0.4368 -0.7696,0.5031 -1.2226,1.3751 -1.298,2.2924 -0.083,0.983 0.2415,1.754 0.7024,2.34 l -0.0425,-0.3626 c 0,0 0.8822,-2.452 6.0993,-4.3875 4.051,-1.5057 8.589,-1.366 12.3823,0.7081 1.768,0.9729 3.5153,2.4044 4.7937,4.5318 l -0.2934,1.256 c 0.2347,0.0116 0.4578,0.0148 0.6707,0.0102 0.8674,-0.3503 1.3589,-0.8952 1.6353,-1.4539 0.6131,-1.2441 0.1647,-2.7742 -0.9714,-3.5679"
           style="fill:#ffe530;fill-opacity:1;fill-rule:nonzero;stroke:none"
           id="path1455" />
        <path
           d="m 373.1465,345.9589 c 1.0877,0.3313 1.7683,0.4232 1.7683,0.4232 0.1499,-0.3558 0.2925,-0.7217 0.4277,-1.0948 -0.7271,0.2211 -1.4593,0.4451 -2.196,0.6716"
           style="fill:#f19584;fill-opacity:1;fill-rule:nonzero;stroke:none"
           id="path1457" />
        <path
           d="m 373.1465,345.9589 c 1.0877,0.3313 1.7683,0.4232 1.7683,0.4232 0.1499,-0.3558 0.2925,-0.7217 0.4277,-1.0948 -0.7271,0.2211 -1.4593,0.4451 -2.196,0.6716"
           style="fill:#ed736b;fill-opacity:1;fill-rule:nonzero;stroke:none"
           id="path1459" />
        <path
           d="m 415.6373,342.9876 c -1.5917,-0.4918 -3.8806,-0.5397 -7.1572,0.4269 0,0 -4.1709,1.3714 -5.4221,3.8911 0,0 -15.8593,3.2763 -29.1373,15.6776 -0.8496,0.7951 -1.6373,1.6523 -2.3491,2.5602 -0.005,9e-4 -0.004,0.006 -0.004,0.006 -3.092,3.9177 -4.8211,8.7783 -4.8109,13.8348 0.009,3.3494 0.5028,7.1229 2.0701,10.6452 0,0 0.7359,-0.2401 1.8944,-0.8136 2.3222,-1.1423 6.3352,-3.6068 9.5171,-8.1019 0.9011,-1.2819 1.8243,-2.5481 2.823,-3.7576 4.4246,-5.3275 15.7598,-18.2143 25.0979,-22.239 0,0 6.2963,-0.9419 9.4057,-4.1224 2.5205,-2.5761 1.5188,-6.9452 -1.9273,-8.0073"
           style="fill:#f19584;fill-opacity:1;fill-rule:nonzero;stroke:none"
           id="path1461" />
        <path
           d="m 371.5673,365.5494 c -3.092,3.9177 -4.8211,8.7783 -4.8109,13.8348 0.009,3.3494 0.5028,7.1229 2.0701,10.6452 0,0 0.7359,-0.2401 1.8944,-0.8136 -0.1324,-0.2823 -5.4113,-11.7059 0.8464,-23.6664"
           style="fill:#ed736b;fill-opacity:1;fill-rule:nonzero;stroke:none"
           id="path1463" />
        <path
           d="m 417.8169,346.1862 c -0.9434,-1.6979 -3.8846,-1.8652 -6.5685,-0.3728 -2.6841,1.4911 -4.0955,4.0774 -3.1515,5.7745 0.9433,1.698 3.8845,1.8646 6.5684,0.3725 2.6836,-1.4913 4.0949,-4.0768 3.1516,-5.7742"
           style="fill:#f29d91;fill-opacity:1;fill-rule:nonzero;stroke:none"
           id="path1465" />
        <path
           d="m 384.9585,429.7082 -46.9854,-13.1797 -38.5585,19.4 c 0,0 -4.9604,19.6419 5.5856,26.4634 0,0 -0.3262,4.5703 5.0253,8.7846 2.4843,1.9548 5.4646,3.17 8.5824,3.6831 2.6527,0.4348 6.7553,0.9595 11.9829,1.1627 0.7509,0.0287 1.5214,0.0508 2.3171,0.0644 7.3394,0.1329 16.5662,-0.3974 26.9345,-2.5427 0,0 15.0392,-2.2757 17.2037,-13.2293 0,0 16.7695,-4.3653 7.9124,-30.6065"
           style="fill:#000000;fill-opacity:1;fill-rule:nonzero;stroke:none"
           id="path1467" />
        <path
           d="m 318.9892,464.4187 c 0.4533,-1.3496 1.4939,-2.1793 2.5991,-2.6906 0.6168,-0.2846 0.7206,-1.1126 0.1811,-1.5256 v 0 c -0.2619,-0.2002 -0.6125,-0.2373 -0.9147,-0.1038 -0.1335,0.0581 -0.2622,0.1182 -0.3881,0.1763 -3.2831,1.5599 -4.553,5.597 -2.6416,8.6899 3.5575,5.7569 12.3673,3.4631 12.3673,3.4631 -0.2529,1.3765 -0.0179,2.5877 0.3985,3.5943 0.7509,0.0287 1.5214,0.0508 2.3171,0.0644 -0.3665,-0.4635 -0.6497,-0.9933 -0.8263,-1.5769 -0.995,-3.2681 1.6999,-5.5219 1.8533,-5.6469 -6.1246,3.9483 -10.8295,2.0094 -13.2109,0.3597 -1.5497,-1.0664 -2.3329,-3.0181 -1.7348,-4.8039"
           style="fill:#606161;fill-opacity:1;fill-rule:nonzero;stroke:none"
           id="path1469" />
        <path
           d="m 368.6783,429.7776 c 0,0 7.1682,10.4049 15.3311,6.6374 3.521,-1.6254 5.6189,-5.3017 5.5171,-9.1783 -0.1284,-4.9011 -3.0574,-11.3973 -17.4733,-11.9087 z"
           style="fill:#f19584;fill-opacity:1;fill-rule:nonzero;stroke:none"
           id="path1471" />
        <path
           d="m 371.1991,426.6536 2.177,-7.0305 c 3.1788,0.0139 5.4763,0.4918 7.1275,1.2214 1.9907,0.8819 3.0478,2.1314 3.5795,3.375 1.2116,2.8298 -0.1397,6.1378 -2.9202,7.4642 -2.5529,1.2163 -5.0655,-0.0703 -6.9239,-1.6461 -1.836,-1.5526 -3.0399,-3.384 -3.0399,-3.384"
           style="fill:#ed736b;fill-opacity:1;fill-rule:nonzero;stroke:none"
           id="path1473" />
        <path
           d="m 371.1991,426.6536 2.177,-7.0305 c 3.1788,0.0139 5.4763,0.4918 7.1275,1.2214 0.5969,0.5834 1.0065,1.2181 1.2773,1.8533 1.2109,2.8301 -0.1449,6.1419 -2.9248,7.4639 -0.8025,0.383 -1.601,0.5176 -2.376,0.4737 -1.2515,-0.07 -2.4098,-0.68 -3.2891,-1.5732 -1.2322,-1.2529 -1.9919,-2.4086 -1.9919,-2.4086"
           style="fill:#e6594d;fill-opacity:1;fill-rule:nonzero;stroke:none"
           id="path1475" />
        <path
           d="m 309.4452,432.8569 c 0,0 -1.8124,2.2536 -4.591,3.8271 -6.7546,3.8256 -14.4722,-2.738 -12.0311,-10.1075 1.4276,-4.3112 5.4253,-8.5275 15.8897,-7.3454 z"
           style="fill:#f19584;fill-opacity:1;fill-rule:nonzero;stroke:none"
           id="path1477" />
        <path
           d="m 296.4546,427.2361 c 0.6568,-1.7371 2.1895,-3.7369 5.6985,-4.7404 1.6138,-0.464 3.6456,-0.7186 6.2084,-0.6437 l 0.3371,6.2447 c 0,0 -2.0435,2.5512 -4.6775,4.0646 -1.6217,0.9334 -3.4679,1.4768 -5.203,0.7943 -2.2317,-0.883 -3.2082,-3.4767 -2.3635,-5.7195"
           style="fill:#ed736b;fill-opacity:1;fill-rule:nonzero;stroke:none"
           id="path1479" />
        <path
           d="m 298.8068,426.274 c 0.4839,-1.2861 1.4519,-2.7181 3.3463,-3.7783 1.6138,-0.464 3.6456,-0.7186 6.2084,-0.6437 l 0.3371,6.2447 c 0,0 -2.0435,2.5512 -4.6775,4.0646 -0.9479,0.2109 -1.9145,0.2015 -2.8511,-0.1678 -2.2331,-0.8782 -3.2088,-3.4722 -2.3632,-5.7195"
           style="fill:#e6594d;fill-opacity:1;fill-rule:nonzero;stroke:none"
           id="path1481" />
        <path
           d="m 304.2252,443.9741 c -0.0734,-1.2812 -0.0978,-2.6583 -0.0621,-4.1372 0.0667,-2.7391 0.0514,-5.4773 -0.1119,-8.2125 -0.1775,-2.9747 -0.4519,-6.84 -0.8439,-10.5143 -0.6293,-5.8844 2.1682,-11.6192 7.2335,-14.682 3.846,-2.325 9.4331,-4.6979 17.4954,-6.425 10.1276,-2.1694 20.6762,-1.8417 30.5138,1.3983 3.3055,1.0885 6.6552,2.5316 9.6372,4.4422 4.7359,3.0336 7.3857,8.4623 7.0614,14.0766 -0.1885,3.2734 -0.3722,7.3732 -0.4127,11.408 -0.017,1.7889 0.0272,3.5776 0.1553,5.3623 0.1517,2.1158 0.2444,6.266 -0.7897,10.6237 -1.7878,7.537 -8.0759,13.1918 -15.7241,14.4218 -6.8227,1.0967 -19.5939,2.2723 -37.3223,0.1636 -9.2129,-1.0962 -16.2941,-8.663 -16.8299,-17.9255"
           style="fill:#f19584;fill-opacity:1;fill-rule:nonzero;stroke:none"
           id="path1483" />
        <path
           d="m 320.3181,412.435 c -0.4266,-3.6167 -2.5515,-6.6124 -5.4848,-8.2945 -1.673,0.7498 -3.1238,1.5205 -4.39,2.2893 -5.0678,3.0614 -7.8633,8.7942 -7.2357,14.6809 0.0706,0.6423 0.1315,1.2858 0.1927,1.9389 l 6e-4,0.005 c 2.077,1.3272 4.6055,1.9661 7.2374,1.6557 6.0611,-0.7152 10.3955,-6.2093 9.6798,-12.2754"
           style="fill:#ec685f;fill-opacity:1;fill-rule:nonzero;stroke:none"
           id="path1485" />
        <path
           d="m 317.9883,410.8499 c -2.2683,-2.0954 -6.5549,-1.1441 -9.5746,2.1248 -3.0197,3.2689 -3.6292,7.6178 -1.3609,9.7129 2.2683,2.0957 6.5548,1.1441 9.5746,-2.1254 3.02,-3.2686 3.6292,-7.6175 1.3609,-9.7123"
           style="fill:#ed736b;fill-opacity:1;fill-rule:nonzero;stroke:none"
           id="path1487" />
        <path
           d="m 368.0853,405.8419 c -2.7528,-1.7598 -5.8235,-3.128 -8.8827,-4.1808 -3.9773,2.4412 -6.3944,7.0429 -5.8121,11.9832 0.7999,6.7784 6.9429,11.6203 13.7219,10.8204 3.2624,-0.385 6.0775,-2.0073 8.0249,-4.3416 0.002,-0.0669 0.009,-0.1346 0.0113,-0.2018 0.3266,-5.6149 -2.3264,-11.0432 -7.0633,-14.0794"
           style="fill:#ec685f;fill-opacity:1;fill-rule:nonzero;stroke:none"
           id="path1489" />
        <path
           d="m 356.4516,408.3299 c -2.8775,2.6861 -2.3341,7.9452 1.2141,11.7473 3.5484,3.8013 8.7585,4.7058 11.6359,2.0197 2.878,-2.6867 2.3343,-7.9458 -1.2141,-11.7471 -3.5484,-3.8018 -8.7576,-4.7063 -11.6359,-2.0199"
           style="fill:#ed736b;fill-opacity:1;fill-rule:nonzero;stroke:none"
           id="path1491" />
        <path
           d="m 374.8893,436.6888 c -0.0397,4.5266 -1.0965,8.2874 -2.5271,11.3136 -3.7004,7.8319 -11.7048,12.6939 -20.3644,12.348 -5.1508,-0.2015 -9.1406,-2.0764 -11.6617,-3.6941 -1.4517,-0.9297 -2.7204,-2.0917 -3.8844,-3.3573 -3.2218,-3.4861 -7.0021,-3.8342 -9.3191,-3.6329 -1.5347,0.1406 -3.0206,0.6539 -4.2911,1.5202 -5.0533,3.4387 -1.2118,8.8288 -1.0775,9.013 -17.0492,-3.3043 -17.6011,-20.3601 -17.6011,-20.3601 -0.0372,1.474 -0.0119,2.8542 0.0618,4.1355 0.5357,9.2636 7.6184,16.8264 16.8287,17.926 17.7324,2.1078 30.4999,0.9346 37.324,-0.1673 7.6493,-1.2302 13.9377,-6.8836 15.7267,-14.4175 1.0326,-4.3572 0.9377,-8.5096 0.7852,-10.6271"
           style="fill:#ed736b;fill-opacity:1;fill-rule:nonzero;stroke:none"
           id="path1493" />
        <path
           d="m 360.7744,434.8278 c -0.0734,-4.3781 -3.1144,-7.8777 -6.7935,-7.8156 -3.6782,0.0612 -6.6007,3.6606 -6.5282,8.039 0.0734,4.3781 3.115,7.8778 6.7938,7.8157 3.6788,-0.0615 6.6016,-3.6609 6.5279,-8.0391"
           style="fill:#400005;fill-opacity:1;fill-rule:nonzero;stroke:none"
           id="path1495" />
        <path
           d="m 352.0582,435.3548 c -0.063,-0.9567 -1.3916,-1.65 -2.9676,-1.5469 -1.5761,0.1027 -2.8035,0.9618 -2.7414,1.9199 0.0626,0.9573 1.3915,1.6492 2.9676,1.5469 1.5763,-0.1029 2.8035,-0.9624 2.7414,-1.9199"
           style="fill:#ffffff;fill-opacity:1;fill-rule:nonzero;stroke:none"
           id="path1497" />
        <path
           d="m 360.1315,438.3856 c 0,0 1.9599,-3.007 5.1222,-2.1611 0,0 -1.9374,-2.4608 -5.1749,-0.9763 z"
           style="fill:#400005;fill-opacity:1;fill-rule:nonzero;stroke:none"
           id="path1499" />
        <path
           d="m 355.9093,447.5764 c 1.5939,-0.2753 4.0836,-0.9128 6.0866,-2.3511 1.241,-0.8915 3.0041,0.1004 2.8125,1.6161 -0.1148,0.9119 -0.678,1.9088 -2.1302,2.8267 -1.033,0.6533 -2.1969,1.087 -3.401,1.2962 -1.414,0.2455 -3.3418,0.2812 -4.3317,-1.0125 -0.6808,-0.8881 -0.1389,-2.1838 0.9638,-2.3754"
           style="fill:#400005;fill-opacity:1;fill-rule:nonzero;stroke:none"
           id="path1501" />
        <path
           d="m 312.0256,436.4875 c -0.447,-3.7854 1.7694,-7.1577 4.9499,-7.533 3.1796,-0.3751 6.1194,2.389 6.5664,6.1741 0.4465,3.7848 -1.7699,7.1572 -4.9496,7.5322 -3.1804,0.3753 -6.1202,-2.3887 -6.5667,-6.1733"
           style="fill:#400005;fill-opacity:1;fill-rule:nonzero;stroke:none"
           id="path1503" />
        <path
           d="m 310.5113,435.4427 c -0.0141,-0.8354 1.0891,-1.5307 2.4631,-1.5531 1.375,-0.0236 2.501,0.6344 2.5151,1.4695 0.0139,0.8353 -1.0893,1.5304 -2.4644,1.5531 -1.3742,0.0235 -2.5004,-0.6353 -2.5138,-1.4695"
           style="fill:#ffffff;fill-opacity:1;fill-rule:nonzero;stroke:none"
           id="path1505" />
        <path
           d="m 312.9939,439.4806 c 0,0 -2.0406,-2.3652 -4.6692,-1.2673 0,0 1.3856,-2.3483 4.3495,-1.4446 z"
           style="fill:#400005;fill-opacity:1;fill-rule:nonzero;stroke:none"
           id="path1507" />
        <path
           d="m 317.7068,446.917 c -1.408,-0.0521 -3.6292,-0.3118 -5.5239,-1.3198 -1.1741,-0.6242 -2.5801,0.4368 -2.2385,1.7218 0.2061,0.773 0.8079,1.5673 2.1671,2.19 0.9672,0.4431 2.0214,0.6815 3.0847,0.7217 1.2481,0.0477 2.9151,-0.1459 3.6178,-1.3767 0.4842,-0.8459 -0.1343,-1.901 -1.1072,-1.937"
           style="fill:#400005;fill-opacity:1;fill-rule:nonzero;stroke:none"
           id="path1509" />
        <path
           d="m 330.4522,431.9595 c 0,0 -0.381,-0.3751 -0.7259,-0.9604 -1.0976,-1.8581 0.1649,-4.2877 2.321,-4.3866 0.0153,-6e-4 0.0297,-9e-4 0.0442,-9e-4 0,0 -3.6374,-1.2586 -4.6919,2.043 0,0 0.4584,2.815 3.0526,3.3049"
           style="fill:#ed736b;fill-opacity:1;fill-rule:nonzero;stroke:none"
           id="path1511" />
        <path
           d="m 334.3708,431.8741 c 0,0 -2.6801,0.9834 -4.714,-0.5564 -0.479,-0.3634 -0.8498,-0.8512 -1.1199,-1.3881 -0.3473,-0.6888 -0.7308,-1.7504 -0.3839,-2.6212 0,0 -1.5667,0.8008 -1.1174,2.7836 0.3127,1.3833 1.4253,2.4588 2.8004,2.8006 1.1942,0.2965 2.8318,0.2824 4.5348,-1.0185"
           style="fill:#400005;fill-opacity:1;fill-rule:nonzero;stroke:none"
           id="path1513" />
        <path
           d="m 341.9932,411.6645 c -2.1546,-1.1636 -4.7645,-1.271 -7.0084,-0.2789 -1.9862,0.8748 -4.0705,2.7388 -3.9013,6.698 0,0 2.5923,1.1792 6.5282,1.586 1.5335,0.1564 3.2646,0.1984 5.1318,0.004 0.7847,-0.0771 1.5894,-0.1976 2.414,-0.3719 0,0 1.2631,-5.2246 -3.1643,-7.6369"
           style="fill:#400005;fill-opacity:1;fill-rule:nonzero;stroke:none"
           id="path1515" />
        <path
           d="m 342.7435,419.6733 c -0.5082,-1.1382 -1.6594,-1.8684 -2.9024,-1.7215 -1.0151,0.1193 -1.836,0.8002 -2.2294,1.7178 1.5335,0.1564 3.2646,0.1984 5.1318,0.004"
           style="fill:#ffffff;fill-opacity:1;fill-rule:nonzero;stroke:none"
           id="path1517" />
        <path
           d="m 344.884,414.9862 c -0.4414,-1.2235 -1.2986,-2.454 -2.8908,-3.3217 -2.1546,-1.1636 -4.7645,-1.271 -7.0084,-0.2789 -0.5156,0.2299 -1.0397,0.5224 -1.5273,0.902 0,0 1.6622,3.1481 5.7152,1.0823 0,0 1.1146,3.4588 5.7113,1.6163"
           style="fill:#e7344c;fill-opacity:1;fill-rule:nonzero;stroke:none"
           id="path1519" />
        <path
           d="m 343.3224,414.3472 c 0.1981,-0.5462 -0.4111,-1.2687 -1.3607,-1.6134 -0.949,-0.3442 -1.8796,-0.1812 -2.0775,0.3656 -0.1981,0.5463 0.4102,1.2683 1.3598,1.6135 0.9493,0.3444 1.8799,0.1809 2.0784,-0.3657"
           style="fill:#e83958;fill-opacity:1;fill-rule:nonzero;stroke:none"
           id="path1521" />
        <path
           d="m 338.4799,412.6703 c -0.0209,-0.5806 -0.8566,-1.0214 -1.866,-0.9842 -1.0094,0.036 -1.8105,0.5369 -1.789,1.118 0.021,0.5805 0.8555,1.0219 1.8652,0.985 1.0097,-0.0371 1.8114,-0.5374 1.7898,-1.1188"
           style="fill:#e83958;fill-opacity:1;fill-rule:nonzero;stroke:none"
           id="path1523" />
        <path
           d="m 353.9109,462.3398 c 0,0 -1.658,0.2834 -4.0785,0.1613 -4.9034,-0.2461 -9.4887,-2.4251 -12.9657,-5.8916 -2.1523,-2.1458 -5.9791,-5.2375 -9.9773,-4.9952 -4.3906,0.2656 -6.1799,5.6038 -2.8131,8.4342 0.3446,0.2892 0.7387,0.5769 1.1902,0.8598 0,0 -5.1077,0.0232 -6.2765,3.5115 -0.5978,1.7853 0.184,3.7347 1.7331,4.8051 2.3834,1.6472 7.0872,3.5869 13.2172,-0.368 0,0 -2.8806,2.2921 -1.8601,5.6512 0.5502,1.8099 2.1174,3.1076 3.9605,3.5345 3.9107,0.9048 11.7556,0.2863 17.8702,-15.7028"
           style="fill:#000000;fill-opacity:1;fill-rule:nonzero;stroke:none"
           id="path1525" />
        <path
           d="m 344.8414,472.7424 c -0.3342,-1.8661 -3.1263,-2.9285 -6.2365,-2.3724 -3.1107,0.5565 -5.362,2.5203 -5.028,4.3867 0.3336,1.8669 3.126,2.9287 6.2362,2.3723 3.111,-0.5565 5.3617,-2.5206 5.0283,-4.3866"
           style="fill:#606161;fill-opacity:1;fill-rule:nonzero;stroke:none"
           id="path1527" />
        <path
           d="m 331.4004,467.2551 c 0.1766,-1.8757 -2.039,-3.6196 -4.949,-3.8934 -2.9106,-0.2741 -5.4119,1.0241 -5.5896,2.9015 -0.1766,1.8763 2.0401,3.6196 4.9498,3.8931 2.9095,0.2744 5.4122,-1.0247 5.5888,-2.9012"
           style="fill:#606161;fill-opacity:1;fill-rule:nonzero;stroke:none"
           id="path1529" />
        <path
           d="m 347.0992,475.5166 c 0,0 1.8868,-0.7639 4.8422,-5.5142 0.2063,-0.3325 0.1253,-0.7688 -0.1916,-0.9998 v 0 c -0.3549,-0.2579 -0.8527,-0.1545 -1.0772,0.2225 -0.8073,1.3544 -2.7581,4.3575 -5.307,6.4338 z"
           style="fill:#606161;fill-opacity:1;fill-rule:nonzero;stroke:none"
           id="path1531" />
        <path
           d="m 373.7529,469.6526 c 0,0 -0.2846,9.6588 3.5526,14.8382 1.5106,2.0381 4.5261,2.3468 6.3227,0.5553 0.6202,-0.6182 1.1973,-1.4745 1.635,-2.662 0,0 6.5427,0.8541 11.7077,-5.8042 1.3881,-1.7898 1.2795,-4.4013 -0.3677,-5.9553 -0.0918,-0.0865 -0.1859,-0.1689 -0.284,-0.246 0,0 2.014,-0.9057 3.2159,-3.8421 1.0893,-2.6603 -0.2356,-5.6466 -2.9582,-6.5673 -2.882,-0.9746 -7.4223,-1.6339 -13.7353,-0.0655 z"
           style="fill:#000000;fill-opacity:1;fill-rule:nonzero;stroke:none"
           id="path1533" />
        <path
           d="m 396.5732,459.9672 c -2.88,-0.9717 -7.418,-1.6342 -13.7325,-0.0649 l -9.0864,9.752 c 0,0 -0.0967,3.2176 0.5624,6.9352 -0.0845,-6.095 5.7064,-11.5764 13.4492,-12.4897 4.4601,-0.5264 8.6412,0.5732 11.6416,2.7388 0.0445,-0.0975 0.0842,-0.1992 0.1276,-0.3021 1.0896,-2.6581 -0.2356,-5.6466 -2.9619,-6.5693"
           style="fill:#606161;fill-opacity:1;fill-rule:nonzero;stroke:none"
           id="path1535" />
        <path
           d="m 396.3504,473.2946 c -0.8822,-1.7071 -4.0238,-1.8372 -7.0195,-0.2906 -2.9948,1.546 -4.7086,4.1828 -3.8273,5.8895 0.881,1.7071 4.0235,1.8375 7.0189,0.2914 2.9945,-1.5468 4.708,-4.1833 3.8279,-5.8903"
           style="fill:#606161;fill-opacity:1;fill-rule:nonzero;stroke:none"
           id="path1537" />
        <path
           d="m 396.3192,470.3786 c 0,0 -1.3561,-1.495 -2.9441,-2.2074 -0.2319,-0.104 -0.3104,-0.3934 -0.163,-0.6009 v 0 c 0.1219,-0.1707 0.3515,-0.2223 0.5327,-0.1168 0.7004,0.409 2.3828,1.4366 3.3454,2.4293 0,0 -0.1029,0.2644 -0.771,0.4958"
           style="fill:#606161;fill-opacity:1;fill-rule:nonzero;stroke:none"
           id="path1539" />
        <path
           d="m 385.2632,482.3841 c 0,0 -2.0268,-0.4671 -4.0836,-3.5824 -0.1318,-0.2004 -0.4019,-0.2551 -0.5964,-0.1151 v 0 c -0.1803,0.1304 -0.2282,0.3773 -0.1074,0.5644 0.5799,0.9 2.3111,3.3369 4.4283,3.975 0,0 0.3869,-0.6055 0.3591,-0.8419"
           style="fill:#606161;fill-opacity:1;fill-rule:nonzero;stroke:none"
           id="path1541" />
        <path
           d="m 383.3558,483.7822 c -0.0998,-0.8448 -1.3006,-1.3969 -2.683,-1.2339 -1.3825,0.1627 -2.4214,0.9796 -2.3222,1.8238 0.0998,0.8444 1.3006,1.3966 2.683,1.2336 1.3825,-0.163 2.4217,-0.9797 2.3222,-1.8235"
           style="fill:#606161;fill-opacity:1;fill-rule:nonzero;stroke:none"
           id="path1543" />
        <path
           d="m 382.5573,457.0163 c -0.0213,-0.007 -0.0431,-0.015 -0.0641,-0.0227 l -0.006,6e-4 c -2.6881,2.6062 -5.4414,3.3205 -5.4414,3.3205 -0.8053,4.0686 -3.3854,6.9443 -6.3187,8.9493 0,0 0.0655,0.1204 0.2166,0.3129 1.277,1.6671 3.7128,1.8666 5.3201,0.5193 2.2549,-1.8947 5.8716,-5.2713 7.848,-8.9251 0.8489,-1.5699 0.1267,-3.5697 -1.5548,-4.1548"
           style="fill:#e83958;fill-opacity:1;fill-rule:nonzero;stroke:none"
           id="path1545" />
        <path
           d="m 382.5573,457.0163 c -0.0213,-0.007 -0.0431,-0.015 -0.0641,-0.0227 l -0.006,6e-4 c -2.6881,2.6062 -5.4414,3.3205 -5.4414,3.3205 -0.8053,4.0686 -3.3854,6.9443 -6.3187,8.9493 0,0 0.0655,0.1204 0.2166,0.3129 0.1454,0.1925 0.3093,0.3682 0.4918,0.5205 1.5919,-2.6102 6.7686,-10.2116 12.9909,-9.8649 0.2197,-1.3473 -0.508,-2.7414 -1.8694,-3.2162"
           style="fill:#e72743;fill-opacity:1;fill-rule:nonzero;stroke:none"
           id="path1547" />
      </g>
      <path
         d="m 379.4584,370.41 c -1.9,1.633 -4.3381,3.0979 -6.6087,4.0251 -2.2708,0.927 -4.3741,1.3156 -6.9468,0.955 -2.5728,-0.3608 -5.6146,-1.4706 -7.2984,-2.4037 -1.6835,-0.9332 -2.0086,-1.6892 -2.3479,-0.709 -0.3396,0.9805 -0.6931,3.6975 -2.2564,5.3144 -1.563,1.6169 -4.3353,2.1336 -6.8233,1.5279 -2.488,-0.6058 -4.691,-2.3343 -6.1276,-2.1217 -1.4366,0.2126 -2.1062,2.3657 -3.8668,4.9081 -1.7606,2.5424 -4.6117,5.4737 -7.0795,7.3265 -2.4684,1.8524 -4.5536,2.6257 -6.556,3.1062 -2.0027,0.4802 -3.9223,0.6675 -6.0463,0.623 -2.1237,-0.0442 -4.4512,-0.3197 -9.4935,-0.9014 -5.0425,-0.5817 -12.7995,-1.4689 -17.5408,-3.8489 -4.7418,-2.3799 -6.4675,-6.2526 -8.8234,-11.2045 -2.3556,-4.9515 -5.3404,-10.9825 -5.5766,-16.9988 -0.2358,-6.0162 2.2771,-12.018 14.2367,-21.4775 11.9594,-9.4598 33.365,-22.3778 51.0444,-26.8294 17.6788,-4.4512 31.6321,-0.4368 40.2363,4.3872 8.6043,4.8237 11.8599,10.4562 12.2831,17.3801 0.4235,6.9233 -1.9848,15.1381 -4.0881,20.6379 -2.103,5.5001 -3.9002,8.2851 -5.4797,10.5778 -1.5794,2.2929 -2.9406,4.0929 -4.8407,5.7257"
         style="fill:#ffffff;fill-opacity:1;fill-rule:evenodd;stroke:none"
         id="path1549" />
    </g>
  </g>
</svg>
