<?xml version="1.0" encoding="UTF-8" standalone="no"?>
<!-- Created with Inkscape (http://www.inkscape.org/) -->

<svg
   width="200"
   height="200"
   viewBox="0 0 52.916664 52.916668"
   version="1.1"
   id="svg11630"
   inkscape:version="1.2.1 (9c6d41e410, 2022-07-14)"
   sodipodi:docname="newborn.svg"
   xmlns:inkscape="http://www.inkscape.org/namespaces/inkscape"
   xmlns:sodipodi="http://sodipodi.sourceforge.net/DTD/sodipodi-0.dtd"
   xmlns="http://www.w3.org/2000/svg"
   xmlns:svg="http://www.w3.org/2000/svg">
  <sodipodi:namedview
     id="namedview11632"
     pagecolor="#ffffff"
     bordercolor="#000000"
     borderopacity="0.25"
     inkscape:showpageshadow="2"
     inkscape:pageopacity="0.0"
     inkscape:pagecheckerboard="0"
     inkscape:deskcolor="#d1d1d1"
     inkscape:document-units="mm"
     showgrid="false"
     inkscape:zoom="0.71624579"
     inkscape:cx="363.00388"
     inkscape:cy="316.23222"
     inkscape:window-width="1920"
     inkscape:window-height="991"
     inkscape:window-x="-9"
     inkscape:window-y="-9"
     inkscape:window-maximized="1"
     inkscape:current-layer="layer1" />
  <defs
     id="defs11627" />
  <g
     inkscape:label="Lapis 1"
     inkscape:groupmode="layer"
     id="layer1">
    <g
       id="g593"
       transform="matrix(-0.35277776,0,0,-0.35277778,77.202788,243.98498)">
      <g
         id="g1735"
         transform="translate(-203.8807,386.80028)">
        <g
           id="g1737">
          <path
             d="m 345.469,159.2702 c -0.3339,6.5937 -4.8897,12.3152 -11.2155,14.2056 -2.5492,0.7619 -5.4587,1.025 -8.3928,0.0439 -2.4143,-0.8064 -5.6149,-2.4264 -7.3664,-4.8948 -2.3987,-3.3795 -4.9782,-8.0731 -3.2729,-17.1604 0,0 -1.26,-0.009 -5.3941,0.1981 -2.3813,0.1191 -4.5391,-1.5554 -4.8676,-3.916 -0.006,-0.0417 -0.0105,-0.0828 -0.0162,-0.1245 -0.2097,-1.7422 0.6132,-3.4498 2.0784,-4.4167 2.1504,-1.4187 2.3454,-1.2132 5.7614,-2.7068 3.4265,-1.4975 6.4273,-1.8805 9.3155,-0.2327 1.8386,1.0497 2.8899,2.2598 3.2009,5.7722 0.0385,0.4246 0.1236,1.3453 0.1953,1.7651 0.434,2.5288 1.0026,4.5034 1.1409,6.4049 0,0 2.4806,-4.4353 5.5313,-5.6721 2.8698,-1.1631 6.1427,-0.6761 8.6998,1.0687 2.3573,1.6083 4.8625,4.5374 4.602,9.6655"
             style="fill:#f19584;fill-opacity:1;fill-rule:nonzero;stroke:none"
             id="path1739" />
          <path
             d="m 306.3946,148.4484 c 0.0845,-1.2835 1.6384,-2.2258 3.4696,-2.1047 1.8317,0.1216 3.2476,1.2603 3.1637,2.5438 -0.0853,1.283 -1.6392,2.2249 -3.471,2.1042 -1.8312,-0.1214 -3.2471,-1.2598 -3.1623,-2.5433"
             style="fill:#f29d91;fill-opacity:1;fill-rule:nonzero;stroke:none"
             id="path1741" />
          <path
             d="m 321.6974,167.0278 c 0.7353,-1.7059 3.4674,-2.1691 6.1019,-1.0341 2.6348,1.1347 4.1751,3.4382 3.4407,5.1441 -0.7353,1.7059 -3.4668,2.169 -6.1019,1.0335 -2.6351,-1.1347 -4.1749,-3.4376 -3.4407,-5.1435"
             style="fill:#f29d91;fill-opacity:1;fill-rule:nonzero;stroke:none"
             id="path1743" />
          <path
             d="m 325.5301,147.6711 c 0.11,-0.1853 0.2228,-0.3651 0.3359,-0.5439 9.3963,-14.7614 28.6869,-19.5758 44.1885,-11.467 0.1791,0.0932 0.3489,0.184 0.5227,0.2767 8.0768,4.3605 14.0301,11.8182 16.7644,20.5809 4.9048,15.7059 3.0138,31.9379 3.0138,31.9379 -0.5502,3.6701 -1.4517,6.9821 -2.5694,9.9508 -0.5431,1.4533 -1.1409,2.8244 -1.7767,4.1131 -5.6486,11.476 -18.6435,17.4211 -31.0422,14.2866 -2.3956,-0.6021 -4.5454,-1.2578 -6.4185,-1.8998 -8.3835,-2.8692 -14.9533,-9.5363 -17.4674,-18.0332 -0.6131,-2.0823 -0.983,-4.0901 -1.1829,-5.9473 -0.263,-2.4449 -0.6766,-4.8575 -1.2138,-7.2462 -0.9788,-4.3305 -2.3683,-8.5697 -4.0365,-12.6987 -1.0953,-2.7085 -1.7651,-5.3807 -2.1696,-7.7522 -0.9114,-5.383 0.187,-10.9094 3.0517,-15.5577"
             style="fill:#e73351;fill-opacity:1;fill-rule:nonzero;stroke:none"
             id="path1745" />
          <path
             d="m 328.6845,183.6797 c 7.6224,-8.1936 22.6633,-10.4675 37.19,-4.7566 10.4995,4.1278 18.3623,11.4917 21.9115,19.4834 -0.5431,1.4533 -1.1409,2.8244 -1.7767,4.1131 -5.6486,11.476 -18.6435,17.4211 -31.0422,14.2866 -1.7966,-0.4507 -3.4574,-0.9323 -4.9595,-1.4188 -0.5034,-0.1581 -0.9904,-0.3217 -1.459,-0.481 -6.6107,-2.2621 -12.0903,-6.8828 -15.3496,-12.9061 -0.8756,-1.6141 -1.5874,-3.3316 -2.1178,-5.1271 -0.6131,-2.0823 -0.983,-4.0901 -1.1829,-5.9473 -0.263,-2.4449 -0.6766,-4.8575 -1.2138,-7.2462"
             style="fill:#e83958;fill-opacity:1;fill-rule:nonzero;stroke:none"
             id="path1747" />
          <path
             d="m 325.5313,147.666 c 0.1131,-0.1797 0.2279,-0.3636 0.339,-0.5377 9.3963,-14.7611 28.6826,-19.5769 44.1884,-11.4667 0.1749,0.0918 0.349,0.1837 0.5185,0.2753 8.0768,4.3605 14.0301,11.8182 16.7655,20.5758 0.9632,3.0847 1.6654,6.1889 2.166,9.1899 0,0 -2.717,-0.7549 -7.1476,-1.4179 -12.2777,-1.838 -37.7076,-2.9599 -54.8836,14.7521 -0.8044,-2.7301 -1.7628,-5.4139 -2.8295,-8.0558 -1.0953,-2.7085 -1.7651,-5.3807 -2.1645,-7.7508 -0.008,-0.0513 -0.0193,-0.1031 -0.0261,-0.1545 -0.8694,-5.3379 0.2333,-10.7988 3.0739,-15.4097"
             style="fill:#0e2d67;fill-opacity:1;fill-rule:nonzero;stroke:none"
             id="path1749" />
          <path
             d="m 323.1649,158.3614 c 3.6632,-14.9357 19.7377,-23.8359 35.9104,-19.87 13.108,3.2157 22.2497,13.904 23.2858,25.7933 -12.2777,-1.838 -37.7076,-2.9599 -54.8836,14.7521 -0.8044,-2.7301 -1.7628,-5.4139 -2.8295,-8.0558 -1.0953,-2.7085 -1.7651,-5.3807 -2.1645,-7.7508 -0.008,-0.0513 -0.0193,-0.1031 -0.0261,-0.1545 0.0881,-1.565 0.3223,-3.1439 0.7075,-4.7143"
             style="fill:#0e3375;fill-opacity:1;fill-rule:nonzero;stroke:none"
             id="path1751" />
          <path
             d="m 333.199,202.0003 c 2.1189,-4.8813 7.503,-7.6658 12.8443,-6.3562 5.9641,1.4627 9.6171,7.4841 8.1533,13.4524 -0.644,2.6266 -2.169,4.8053 -4.189,6.2909 -0.5034,-0.1581 -0.9904,-0.3217 -1.459,-0.481 -6.6107,-2.2621 -12.0903,-6.8828 -15.3496,-12.9061"
             style="fill:#ed736b;fill-opacity:1;fill-rule:nonzero;stroke:none"
             id="path1753" />
          <path
             d="m 368.2185,146.9727 c -0.7946,3.8744 -3.0453,9.8161 -9.3767,14.3793 -5.7033,4.1105 -13.017,5.3107 -19.7796,3.3877 -0.1066,-0.0303 -0.214,-0.0618 -0.3215,-0.0938 -7.8502,-2.3332 -12.4753,-10.3125 -10.5446,-18.2713 0.7662,-3.1587 2.6782,-7.5291 5.1361,-11.2731 0,0 -1.7881,-0.1829 -5.1471,-0.504 -1.9647,-0.1874 -3.6108,-1.6311 -3.97,-3.572 -0.006,-0.0328 -0.0121,-0.0654 -0.0178,-0.0983 -0.3342,-1.9953 0.8218,-3.9444 2.6833,-4.7367 2.4551,-1.0446 5.7965,-1.6651 9.6463,-2.6617 2.3848,-0.6166 4.8747,-0.9278 7.0511,0.2262 1.9837,1.0513 3.7832,2.9695 3.4697,6.4641 0,0 -0.6206,5.8275 -1.9713,9.4331 0,0 0.4451,-1.0839 1.5299,-2.4616 5.4082,-6.8658 16.0801,-6.135 20.3649,1.4825 0.0426,0.0766 0.0845,0.1537 0.127,0.2316 1.3275,2.4591 1.6813,5.3306 1.1203,8.068"
             style="fill:#f19584;fill-opacity:1;fill-rule:nonzero;stroke:none"
             id="path1755" />
          <path
             d="m 345.0764,139.6522 c 0,0 -2.2912,4.3257 -3.7423,8.5777 -0.1332,0.3909 -0.5451,0.6117 -0.945,0.513 v 0 c -0.4334,-0.1057 -0.6971,-0.5439 -0.584,-0.9754 0.6305,-2.4154 2.4991,-8.5348 6.4386,-12.4203 z"
             style="fill:#e6594d;fill-opacity:1;fill-rule:nonzero;stroke:none"
             id="path1757" />
          <path
             d="m 330.7175,149.9054 c 1.9622,-1.3946 5.1208,-0.3192 7.0543,2.4018 1.9338,2.7216 1.9103,6.0579 -0.0513,7.4526 -1.9627,1.3946 -5.1205,0.3183 -7.0548,-2.4024 -1.9338,-2.7215 -1.9109,-6.0579 0.0518,-7.452"
             style="fill:#f29d91;fill-opacity:1;fill-rule:nonzero;stroke:none"
             id="path1759" />
          <path
             d="m 355.3654,145.4715 c 0.1618,-4.0301 2.7252,-7.1986 5.7245,-7.0781 2.9999,0.121 5.2997,3.4854 5.1372,7.5149 -0.1618,4.0297 -2.7252,7.1983 -5.7245,7.0772 -2.9994,-0.1204 -5.2997,-3.4852 -5.1372,-7.514"
             style="fill:#f29d91;fill-opacity:1;fill-rule:nonzero;stroke:none"
             id="path1761" />
          <path
             d="m 324.9558,130.5618 c 0.4255,-0.9731 2.1116,-1.1755 3.7656,-0.4521 1.6549,0.7231 2.6507,2.0987 2.2252,3.0716 -0.4252,0.9731 -2.1115,1.1755 -3.7661,0.4518 -1.654,-0.7234 -2.6507,-2.0985 -2.2247,-3.0713"
             style="fill:#f29d91;fill-opacity:1;fill-rule:nonzero;stroke:none"
             id="path1763" />
          <path
             d="m 308.3054,248.5071 40.5539,-16.6396 39.5719,11.0095 3.3217,0.9212 c 0,0 -0.4873,10.0548 -6.3086,20.1875 -6.8314,11.884 -19.6265,18.9871 -33.332,18.8944 -8.0183,-0.0581 -18.8178,-1.6804 -29.1486,-8.1805 0,0 -6.4483,-3.9056 -10.8675,-10.5427 -2.8072,-4.2151 -4.7954,-9.5371 -3.7908,-15.6498"
             style="fill:#e84568;fill-opacity:1;fill-rule:nonzero;stroke:none"
             id="path1765" />
          <path
             d="m 308.3054,248.5071 40.5539,-16.6396 39.5719,11.0095 c -0.5646,3.7125 -2.0645,10.4839 -5.9768,17.2822 -6.8341,11.8888 -19.6229,18.9888 -33.3329,18.8949 -8.015,-0.0518 -18.8195,-1.6764 -29.1478,-8.1805 0,0 -4.0145,-2.4264 -7.8775,-6.7167 -2.8072,-4.2151 -4.7954,-9.5371 -3.7908,-15.6498"
             style="fill:#e83a54;fill-opacity:1;fill-rule:nonzero;stroke:none"
             id="path1767" />
          <path
             d="m 305.1153,231.6195 c 1.0959,-3.1771 4.4861,-4.9034 7.6748,-3.9575 0.0204,0.1709 0.0366,0.3393 0.0513,0.5137 0.3427,3.4993 0.0377,7.0333 -0.9927,10.4116 -1.1698,3.8415 -1.2965,7.2335 -0.7404,10.2002 0.1168,0.6562 0.2724,1.2852 0.457,1.9009 1.1157,3.7055 3.2893,6.6739 5.6647,8.9725 0.2118,0.2069 0.4221,0.404 0.6353,0.591 4.3716,3.9691 9.1539,5.7374 9.1539,5.7374 0.0377,0.0178 0.0785,0.032 0.1179,0.0459 0.0785,0.0314 0.157,0.0635 0.2353,0.0955 3.6261,1.4633 7.0095,2.5506 10.1531,3.3259 l 0.0309,0.0111 c 3.9668,0.9799 7.5552,1.472 10.7736,1.6132 0.1426,0.005 0.2787,0.0119 0.4167,0.015 1.5597,0.0555 3.0277,0.0309 4.4116,-0.0638 2.1044,-0.1432 4.1474,-0.5258 6.0996,-1.1341 0.2934,-0.0876 0.5896,-0.1837 0.8787,-0.2878 3.4175,-1.1851 6.5271,-3.0481 9.18,-5.43 0.0641,-0.0573 0.1248,-0.1159 0.184,-0.1746 4.1162,-3.7593 7.0877,-8.7922 8.3021,-14.5199 0.1284,-0.6163 0.2361,-1.2045 0.3348,-1.7768 0.1437,-0.8787 0.3092,-1.7498 0.5011,-2.6223 0.3941,-0.0476 0.7949,-0.0587 1.1954,-0.0247 0.5233,0.0366 1.0525,0.1446 1.5713,0.3237 3.2666,1.1254 5.0003,4.6922 3.8766,7.9538 -0.9056,2.6271 -3.3936,4.257 -6.0296,4.212 1.1863,1.601 1.5917,3.7363 0.8924,5.7639 -1.1256,3.2661 -4.6905,4.9958 -7.9563,3.8705 -0.3064,-0.1055 -0.6024,-0.2421 -0.8824,-0.3932 0.2616,1.1123 0.2242,2.3017 -0.1749,3.46 -1.1254,3.2652 -4.6823,4.9983 -7.9484,3.8729 -1.0649,-0.3673 -1.9613,-0.9935 -2.6504,-1.7875 -0.0481,0.4847 -0.1465,0.9723 -0.3137,1.4559 -1.1254,3.2661 -4.6835,5.0031 -7.9495,3.8778 -1.7436,-0.6012 -3.0444,-1.8987 -3.7111,-3.479 -1.1855,3.166 -4.6786,4.8317 -7.8917,3.7242 -2.2944,-0.7909 -3.8234,-2.7924 -4.1465,-5.0389 -1.5973,2.0412 -4.3705,2.9577 -6.9619,2.0642 -2.6226,-0.9045 -4.2557,-3.3831 -4.2117,-6.0148 -1.6379,1.6251 -4.1162,2.2901 -6.4463,1.4867 -3.2661,-1.1253 -4.9958,-4.691 -3.8699,-7.9571 0.0703,-0.2035 0.1435,-0.4017 0.2348,-0.5939 -1.3218,0.5072 -2.816,0.5633 -4.2534,0.0681 -3.2661,-1.1262 -4.9978,-4.6868 -3.8722,-7.9529 0.4561,-1.3224 1.3099,-2.3885 2.3868,-3.1195 -0.4093,-0.0519 -0.8144,-0.1466 -1.2132,-0.2841 -3.2661,-1.1262 -5.0023,-4.6885 -3.8767,-7.954 0.5803,-1.6818 1.8133,-2.9548 3.3166,-3.6431 -2.4418,-1.5018 -3.61,-4.5362 -2.6374,-7.3581"
             style="fill:#fdcf39;fill-opacity:1;fill-rule:nonzero;stroke:none"
             id="path1769" />
          <path
             d="m 369.5006,264.0056 c 4.1162,-3.7593 7.0877,-8.7922 8.3021,-14.5199 0.1284,-0.6163 0.2361,-1.2045 0.3348,-1.7768 0.1437,-0.8787 0.3092,-1.7498 0.5011,-2.6223 0.3941,-0.0476 0.7949,-0.0587 1.1954,-0.0247 2.0597,1.4151 3.0118,4.0816 2.1583,6.5574 -0.826,2.3967 -3.0917,3.8846 -5.4947,3.841 1.0761,1.4581 1.4485,3.4035 0.8124,5.2494 -1.0267,2.9773 -4.2712,4.5547 -7.2487,3.5286 -0.1953,-0.0672 -0.3816,-0.1463 -0.5607,-0.2327"
             style="fill:#f6ab44;fill-opacity:1;fill-rule:nonzero;stroke:none"
             id="path1771" />
          <path
             d="m 361.8536,270.5641 c -0.6435,-0.2214 -1.2206,-0.5499 -1.717,-0.9539 3.4175,-1.1851 6.5271,-3.0481 9.18,-5.43 0.1687,0.9218 0.108,1.9043 -0.2191,2.8539 -1.0261,2.9775 -4.2664,4.557 -7.2439,3.53"
             style="fill:#f6ab44;fill-opacity:1;fill-rule:nonzero;stroke:none"
             id="path1773" />
          <path
             d="m 351.906,273.7981 c -1.4109,-0.4864 -2.509,-1.4757 -3.1593,-2.7022 1.5597,0.0555 3.0277,0.0309 4.4116,-0.0638 2.1044,-0.1432 4.1474,-0.5258 6.0996,-1.1341 -0.0278,0.1241 -0.0646,0.2457 -0.1055,0.3656 -1.0255,2.9733 -4.2723,4.5595 -7.2464,3.5345"
             style="fill:#f6ab44;fill-opacity:1;fill-rule:nonzero;stroke:none"
             id="path1775" />
          <path
             d="m 337.5564,269.4677 c 3.9668,0.9799 7.5552,1.472 10.7736,1.6132 -1.2305,2.5894 -4.2315,3.8933 -7.0007,2.9389 -2.0766,-0.7155 -3.4673,-2.5157 -3.7729,-4.5521"
             style="fill:#f6ab44;fill-opacity:1;fill-rule:nonzero;stroke:none"
             id="path1777" />
          <path
             d="m 327.3724,266.1307 c 3.6261,1.4633 7.0095,2.5506 10.1531,3.3259 -1.4581,1.8405 -3.9693,2.6586 -6.3212,1.8479 -2.2853,-0.7877 -3.7497,-2.8913 -3.8319,-5.1738"
             style="fill:#f6ab44;fill-opacity:1;fill-rule:nonzero;stroke:none"
             id="path1779" />
          <path
             d="m 317.8653,260.2519 c 4.3716,3.9691 9.1539,5.7374 9.1539,5.7374 0.0377,0.0178 0.0785,0.032 0.1179,0.0459 -1.4902,1.3277 -3.6241,1.8434 -5.6472,1.1457 -2.8715,-0.9898 -4.439,-4.047 -3.6246,-6.929"
             style="fill:#f6ab44;fill-opacity:1;fill-rule:nonzero;stroke:none"
             id="path1781" />
          <path
             d="m 310.7707,252.2015 c 0.1925,-0.5592 0.4618,-1.0675 0.7946,-1.5131 1.1157,3.7055 3.2893,6.6739 5.6647,8.9725 -0.9473,0.1848 -1.9499,0.1267 -2.9268,-0.21 -2.9769,-1.0259 -4.5595,-4.2716 -3.5325,-7.2494"
             style="fill:#f6ab44;fill-opacity:1;fill-rule:nonzero;stroke:none"
             id="path1783" />
          <path
             d="m 308.9282,231.8213 c 0.6409,-1.859 2.1461,-3.1723 3.9132,-3.6456 0.3427,3.4993 0.0377,7.0333 -0.9927,10.4116 -1.1698,3.8415 -1.2965,7.2335 -0.7404,10.2002 -2.4931,-1.2657 -3.7409,-4.2134 -2.8017,-6.9378 0.5278,-1.5313 1.6528,-2.6926 3.0257,-3.3211 -2.2298,-1.3643 -3.2911,-4.1335 -2.4041,-6.7073"
             style="fill:#f6ab44;fill-opacity:1;fill-rule:nonzero;stroke:none"
             id="path1785" />
          <path
             d="m 374.9814,240.169 c 0,0 4.8399,11.6326 13.5808,9.6463 3.7712,-0.8569 6.5783,-4.0093 7.2808,-7.8114 0.8892,-4.807 -0.6239,-11.749 -14.5798,-15.2311 z"
             style="fill:#f19584;fill-opacity:1;fill-rule:nonzero;stroke:none"
             id="path1787" />
          <path
             d="m 378.6401,237.7843 3.382,-6.0563 c 2.9279,0.6347 4.9521,1.5237 6.332,2.5203 1.6631,1.2013 2.393,2.5603 2.6408,3.8103 0.5629,2.8457 -1.3295,5.6322 -4.1528,6.3111 -2.5906,0.6219 -4.6559,-1.0556 -6.061,-2.8721 -1.389,-1.7898 -2.141,-3.7133 -2.141,-3.7133"
             style="fill:#ed736b;fill-opacity:1;fill-rule:nonzero;stroke:none"
             id="path1789" />
          <path
             d="m 378.6401,237.7843 3.382,-6.0563 c 2.9279,0.6347 4.9521,1.5237 6.332,2.5203 0.436,0.6537 0.6902,1.3193 0.8155,1.9582 0.5633,2.8451 -1.3342,5.6338 -4.157,6.3093 -0.8141,0.1959 -1.576,0.1636 -2.283,-0.0283 -1.1398,-0.3101 -2.0886,-1.0979 -2.7238,-2.0937 -0.8912,-1.396 -1.3657,-2.6095 -1.3657,-2.6095"
             style="fill:#e6594d;fill-opacity:1;fill-rule:nonzero;stroke:none"
             id="path1791" />
          <path
             d="m 318.0209,230.5199 c 0,0 -1.9474,2.1268 -4.8127,3.5152 -6.9661,3.3772 -14.2268,-3.6456 -11.3281,-10.8235 1.696,-4.1995 5.9426,-8.1397 16.2797,-6.2974 z"
             style="fill:#f19584;fill-opacity:1;fill-rule:nonzero;stroke:none"
             id="path1793" />
          <path
             d="m 305.9391,224.4521 c 0.7642,-1.6869 2.4165,-3.5793 5.9726,-4.3541 1.6347,-0.3585 3.6739,-0.4827 6.2183,-0.2451 l -0.0615,6.2359 c 0,0 -2.1963,2.4083 -4.9136,3.7463 -1.673,0.8254 -3.5461,1.2489 -5.2279,0.4589 -2.1654,-1.0202 -2.9716,-3.6644 -1.9879,-5.8419"
             style="fill:#ed736b;fill-opacity:1;fill-rule:nonzero;stroke:none"
             id="path1795" />
          <path
             d="m 308.3411,223.645 c 0.5633,-1.2495 1.6178,-2.6121 3.5706,-3.547 1.6347,-0.3585 3.6739,-0.4827 6.2183,-0.2451 l -0.0615,6.2359 c 0,0 -2.1963,2.4083 -4.9136,3.7463 -0.9561,0.1502 -1.9187,0.079 -2.827,-0.3481 -2.1659,-1.0163 -2.9721,-3.6601 -1.9868,-5.842"
             style="fill:#e6594d;fill-opacity:1;fill-rule:nonzero;stroke:none"
             id="path1797" />
          <path
             d="m 327.018,265.9912 c 0,0 -21.1337,-7.8343 -15.1645,-27.4064 1.1625,-3.8112 1.3995,-7.8322 0.8255,-11.7752 -0.2191,-1.51 -0.3424,-3.3015 -0.2543,-5.3569 0.3524,-8.2326 5.3258,-15.635 12.8957,-18.8906 1.6353,-0.7039 3.4962,-1.349 5.6114,-1.8947 11.1589,-2.8808 22.9893,-1.3688 33.247,3.8846 4.6211,2.3658 9.7901,5.4867 14.2711,9.345 5.3577,4.6119 7.1257,12.2201 4.3253,18.7101 -0.0566,0.1309 -0.1139,0.263 -0.1732,0.3965 -2.0908,4.6959 -3.6297,9.6313 -4.4657,14.7033 -0.0946,0.5723 -0.2052,1.1668 -0.3353,1.7788 -2.5186,11.8528 -12.5524,20.7357 -24.6424,21.5441 -6.6555,0.4451 -15.3187,-0.6205 -26.1406,-5.0386"
             style="fill:#f19584;fill-opacity:1;fill-rule:nonzero;stroke:none"
             id="path1799" />
          <path
             d="m 364.3651,213.6438 c 0.8447,-2.6498 2.3536,-4.907 4.278,-6.6464 3.3251,1.9455 6.7298,4.2472 9.8079,6.8976 5.3566,4.6145 7.1235,12.2207 4.3248,18.7104 -0.0584,0.1303 -0.1142,0.2667 -0.1729,0.3968 l -0.005,0.0162 c -2.6702,0.6834 -5.5522,0.644 -8.3713,-0.2543 -8.0022,-2.5574 -12.4146,-11.1169 -9.8611,-19.1203"
             style="fill:#ec685f;fill-opacity:1;fill-rule:nonzero;stroke:none"
             id="path1801" />
          <path
             d="m 366.3805,217.5063 c 2.2003,-2.3122 6.9049,-1.4077 10.5075,2.0208 3.6028,3.4283 4.7395,8.0816 2.539,10.3944 -2.2003,2.3122 -6.9047,1.4083 -10.5075,-2.0202 -3.6031,-3.4283 -4.7395,-8.0825 -2.539,-10.395"
             style="fill:#ed736b;fill-opacity:1;fill-rule:nonzero;stroke:none"
             id="path1803" />
          <path
             d="m 325.3204,202.5595 c 0.0901,-0.0368 0.182,-0.0782 0.2721,-0.1153 2.414,3.2388 3.2803,7.552 1.9528,11.694 -2.0551,6.4398 -8.6769,10.1588 -15.1461,8.7191 -0.004,-0.4533 0.007,-0.9201 0.0286,-1.4057 0.3467,-8.2301 5.3249,-15.6353 12.8926,-18.8921"
             style="fill:#ec685f;fill-opacity:1;fill-rule:nonzero;stroke:none"
             id="path1805" />
          <path
             d="m 324.9388,209.7096 c 1.9466,1.3448 1.8261,4.8938 -0.2687,7.9263 -2.0954,3.0333 -5.3714,4.4016 -7.3185,3.0569 -1.9468,-1.3448 -1.8263,-4.8938 0.269,-7.9263 2.0954,-3.0328 5.3714,-4.4013 7.3182,-3.0569"
             style="fill:#ed736b;fill-opacity:1;fill-rule:nonzero;stroke:none"
             id="path1807" />
          <path
             d="m 324.7398,263.1455 c -0.0462,-0.2395 -0.4115,-1.0768 -0.4322,-1.2923 -0.2013,-1.792 0.3398,-2.8913 2.1166,-3.2074 3.9716,-0.7061 7.2278,0.097 7.2278,0.097 1.5267,-0.2679 2.9316,0.0459 3.9186,0.1477 2.1177,0.2233 3.4809,1.614 3.5192,3.7372 0.0649,3.6714 2.7598,5.7262 2.7598,5.7262 25.8055,4.2724 33.9531,-18.8682 33.9531,-18.8682 -2.5206,11.8502 -12.5535,20.7346 -24.6441,21.5421 -6.6572,0.4459 -15.3204,-0.6196 -26.1411,-5.0343 0,0 -21.1349,-7.8358 -15.1628,-27.4093 -3.5807,16.3363 12.8851,24.5613 12.8851,24.5613"
             style="fill:#f08c77;fill-opacity:1;fill-rule:nonzero;stroke:none"
             id="path1809" />
          <path
             d="m 343.0871,270.5666 c 0,0 -3.6292,-2.1146 -4.2551,-6.9457 -0.1896,-1.4607 -1.3731,-2.588 -2.8463,-2.6288 l -0.0796,-0.002 c -1.0069,-0.0278 -1.8312,0.8144 -1.7558,1.819 0.0468,0.6094 0.1641,1.3478 0.415,2.1866 0,0 -1.7634,-1.1302 -2.4443,-3.3863 -0.1908,-0.6335 -0.7861,-1.057 -1.4465,-1.0669 -0.5905,-0.008 -1.3635,-0.0227 -2.2607,-0.0493 -1.6112,-0.0462 -2.628,1.7231 -1.7716,3.0883 1.0383,1.6546 2.8145,3.6173 5.8067,5.0397 0,0 -3.158,-0.5179 -5.8733,-1.7489 -0.6115,-0.2773 -1.1659,0.5 -0.7045,0.9878 1.0253,1.0846 2.5572,2.3156 4.7512,3.2451 3.2224,1.3649 6.8559,1.5469 10.1914,0.489 0.8065,-0.2557 1.5973,-0.5905 2.2734,-1.0276"
             style="fill:#000000;fill-opacity:1;fill-rule:nonzero;stroke:none"
             id="path1811" />
          <path
             d="m 342.1037,270.487 c 0,0 -7.6294,4.2321 -15.0533,-2.3165 0,0 5.7781,4.2262 15.0533,2.3165"
             style="fill:#606161;fill-opacity:1;fill-rule:nonzero;stroke:none"
             id="path1813" />
          <path
             d="m 335.164,269.4781 c 0,0 -8.3634,-3.3616 -8.1868,-8.1941 0,0 1.8777,4.5837 8.1868,8.1941"
             style="fill:#606161;fill-opacity:1;fill-rule:nonzero;stroke:none"
             id="path1815" />
          <path
             d="m 335.8573,266.1931 c 0,0 -2.3757,-3.678 -0.3617,-4.6596 0,0 -0.6959,1.9411 0.3617,4.6596"
             style="fill:#606161;fill-opacity:1;fill-rule:nonzero;stroke:none"
             id="path1817" />
          <path
             d="m 360.4065,249.23 c -1.3275,0.5278 -3.5119,1.0168 -6.5945,0.5199 -1.5412,-0.2489 -2.5603,1.6208 -1.4392,2.7053 0.5032,0.4873 1.2688,0.9213 2.4177,1.2048 1.8023,0.4436 3.7258,0.3115 5.3986,-0.4927 0.9663,-0.4643 1.8782,-1.1727 2.1659,-2.2362 0.3116,-1.1535 -0.8385,-2.1425 -1.9485,-1.7011"
             style="fill:#400005;fill-opacity:1;fill-rule:nonzero;stroke:none"
             id="path1819" />
          <path
             d="m 320.9837,244.1438 c -1.3085,-0.5315 -3.1023,-1.455 -4.5156,-2.9115 -0.6886,-0.7101 -1.8956,-0.4297 -2.1586,0.5236 -0.3124,1.1316 -0.072,2.6064 2.2238,3.9038 0,0 2.3184,1.3732 4.1595,1.1024 1.3689,-0.2012 1.5724,-2.097 0.2909,-2.6183"
             style="fill:#400005;fill-opacity:1;fill-rule:nonzero;stroke:none"
             id="path1821" />
          <path
             d="m 350.7355,233.8631 c 0.7679,-3.5705 3.8792,-5.9295 6.948,-5.2696 3.0694,0.6607 4.9343,4.0909 4.1664,7.6612 -0.7688,3.5705 -3.8804,5.9303 -6.9489,5.2696 -3.069,-0.6608 -4.9342,-4.091 -4.1655,-7.6612"
             style="fill:#400005;fill-opacity:1;fill-rule:nonzero;stroke:none"
             id="path1823" />
          <path
             d="m 349.6691,236.3443 c 0.2274,-1.0562 1.5985,-1.6572 3.0632,-1.3423 1.4643,0.3155 2.4669,1.4276 2.2396,2.484 -0.227,1.0562 -1.599,1.6569 -3.0628,1.342 -1.4644,-0.3155 -2.467,-1.4267 -2.24,-2.4837"
             style="fill:#ffffff;fill-opacity:1;fill-rule:nonzero;stroke:none"
             id="path1825" />
          <path
             d="m 361.1404,238.2094 c 0,0 1.6608,-2.2566 3.8809,-1.2719 0,0 -1.3785,-2.0701 -3.7562,-1.6188 z"
             style="fill:#400005;fill-opacity:1;fill-rule:nonzero;stroke:none"
             id="path1827" />
          <path
             d="m 326.2365,232.0268 c 0.1333,-2.8616 -1.7535,-5.2744 -4.2131,-5.3892 -2.4605,-0.1143 -4.5621,2.1135 -4.6953,4.9751 -0.133,2.8621 1.7527,5.275 4.2131,5.3892 2.4602,0.1139 4.5618,-2.1127 4.6953,-4.9751"
             style="fill:#400005;fill-opacity:1;fill-rule:nonzero;stroke:none"
             id="path1829" />
          <path
             d="m 321.2232,234.4303 c 0.0388,-0.847 -0.8805,-1.5775 -2.054,-1.6316 -1.1738,-0.055 -2.1566,0.587 -2.1969,1.434 -0.0388,0.8464 0.8805,1.5775 2.0543,1.6319 1.1736,0.055 2.1563,-0.587 2.1966,-1.4343"
             style="fill:#ffffff;fill-opacity:1;fill-rule:nonzero;stroke:none"
             id="path1831" />
          <path
             d="m 317.4744,233.2369 c 0,0 -0.8076,-2.044 -2.689,-1.7422 0,0 1.4604,-1.294 3.1737,-0.4748 z"
             style="fill:#400005;fill-opacity:1;fill-rule:nonzero;stroke:none"
             id="path1833" />
          <path
             d="m 332.6893,231.6835 c 0,0 -0.4561,-0.2489 -0.9357,-0.7032 -1.525,-1.444 -0.9947,-4.0559 0.9958,-4.7254 0.0131,-0.004 0.0272,-0.009 0.0406,-0.013 0,0 -3.7392,-0.2024 -3.8413,3.168 0,0 1.1824,2.51 3.7406,2.2736"
             style="fill:#ed736b;fill-opacity:1;fill-rule:nonzero;stroke:none"
             id="path1835" />
          <path
             d="m 336.3327,230.5536 c 0,0 -2.2442,1.6382 -4.5587,0.743 -0.5459,-0.2112 -1.0224,-0.5686 -1.4201,-0.9986 -0.5094,-0.5511 -1.152,-1.4415 -1.0608,-2.3497 0,0 -1.2506,1.1693 -0.2993,2.9041 0.6625,1.2096 1.9911,1.9185 3.3698,1.8692 1.1951,-0.0423 2.7238,-0.4941 3.9691,-2.168"
             style="fill:#400005;fill-opacity:1;fill-rule:nonzero;stroke:none"
             id="path1837" />
          <path
             d="m 334.1305,217.9545 c 0,0 6.3827,-3.1833 11.336,1.7541 l 1.8232,-0.8887 c 0,0 -7.0112,-6.9191 -13.1592,-0.8654"
             style="fill:#400005;fill-opacity:1;fill-rule:nonzero;stroke:none"
             id="path1839" />
          <path
             d="m 343.7385,223.0764 c 0,0 0.2945,-7.3851 7.4242,-4.928 0,0 -4.4898,-0.1772 -7.4242,4.928"
             style="fill:#400005;fill-opacity:1;fill-rule:nonzero;stroke:none"
             id="path1841" />
          <path
             d="m 320.3952,182.7947 c 5.7801,-1.2235 10.8337,-1.3938 12.5685,-0.5295 0.1358,0.068 0.25,0.1451 0.3433,0.2273 0.1437,0.1185 0.237,0.2597 0.2727,0.4167 0.003,0.005 0.002,0.01 0.005,0.0159 0.007,0.0309 0.009,0.066 0.0105,0.1006 0.005,0.0167 0.005,0.0366 0.001,0.055 -0.0402,1.5477 -5.2843,3.8835 -12.0112,5.3133 -6.7213,1.4218 -12.4617,1.4181 -13.1383,0.0204 -0.0236,-0.0451 -0.0403,-0.0981 -0.0522,-0.1506 -0.3265,-1.5434 5.0451,-3.9917 12.0005,-5.4691"
             style="fill:#ffeeb0;fill-opacity:1;fill-rule:nonzero;stroke:none"
             id="path1843" />
          <path
             d="m 317.3088,185.0922 c 3.6119,-0.618 6.7476,-0.6007 7.8015,-0.0227 0.0828,0.0456 0.1514,0.0961 0.2075,0.1494 0.0853,0.0771 0.1395,0.1666 0.1585,0.2642 0.002,0.004 0.001,0.007 0.002,0.0104 0.004,0.0196 0.004,0.0409 0.004,0.0624 0.003,0.0105 0.003,0.0227 -8e-4,0.034 -0.0618,0.9581 -3.3685,2.2782 -7.572,3.0011 -4.1986,0.718 -7.7555,0.5765 -8.1413,-0.3062 -0.0131,-0.0289 -0.0221,-0.0623 -0.0287,-0.0944 -0.1641,-0.9646 3.223,-2.351 7.5688,-3.0982"
             style="fill:#fff3c7;fill-opacity:1;fill-rule:nonzero;stroke:none"
             id="path1845" />
          <path
             d="m 301.5663,174.2298 9.9321,28.8448 c 0.2466,-0.1415 0.5133,-0.2826 0.7937,-0.4212 0.005,0.001 0.006,-0.004 0.006,-0.004 0.2305,-0.116 0.4754,-0.2328 0.7251,-0.3444 0.0499,-0.0222 0.1055,-0.0482 0.1554,-0.0703 l -4.7316,-13.8206 c -0.0236,-0.0451 -0.0403,-0.0981 -0.0522,-0.1506 l -5.0187,-14.6596 c -0.1103,-0.313 0.002,-0.65 0.2809,-0.8433 0.8285,-0.5848 2.3227,-1.5146 4.7387,-2.5827 5.5306,-2.4579 11.3984,-3.7783 17.4464,-3.9265 1.3348,-0.0371 2.4411,-0.007 3.338,0.055 0.8955,0.0666 1.5826,0.1567 2.0778,0.2486 0.3303,0.0805 0.5502,0.3268 0.5854,0.6261 l 1.7365,15.7278 0.0156,0.1165 c 0.005,0.0167 0.005,0.0366 0.001,0.055 l 1.569,14.1786 -10e-4,0.004 c 0.1791,-0.005 0.352,-0.007 0.5247,-0.009 0.0246,0.001 0.0501,-0.002 0.0748,-0.001 0.3144,0.003 0.6231,0.01 0.9156,0.0224 0.1618,0.005 0.3124,0.0122 0.462,0.0246 l -3.3953,-30.3216 c -0.1216,-1.1098 -0.9303,-2.0129 -2.0041,-2.2759 -0.0561,-0.0137 -0.1117,-0.0273 -0.1729,-0.0377 -1.2192,-0.2155 -3.0801,-0.4006 -5.7731,-0.3314 -6.2679,0.1579 -12.4506,1.5539 -18.1794,4.0963 -2.4653,1.0905 -4.066,2.0529 -5.0768,2.776 -0.9601,0.6814 -1.3595,1.9088 -0.9732,3.024"
             style="fill:#ffffff;fill-opacity:1;fill-rule:nonzero;stroke:none"
             id="path1847" />
          <path
             d="m 308.4469,188.4144 c 0.6766,1.3977 6.417,1.4014 13.1383,-0.0204 6.7269,-1.4298 11.971,-3.7656 12.0112,-5.3133 l 1.569,14.1786 c -1.9709,0.0388 -4.2415,0.2755 -6.2187,0.5397 -0.5754,0.0757 -1.1264,0.1525 -1.639,0.2333 -1.1194,0.1641 -2.2308,0.3748 -3.3358,0.6211 -1.1001,0.2477 -2.1917,0.5366 -3.2779,0.8668 -0.4944,0.1494 -1.0236,0.3155 -1.5787,0.4896 -1.9312,0.6205 -4.1181,1.4003 -5.9368,2.2252 z"
             style="fill:#e8f4fc;fill-opacity:1;fill-rule:nonzero;stroke:none"
             id="path1849" />
          <path
             d="m 312.7745,206.5518 c 0,0 2.2777,-2.3935 11.9481,-4.5705 9.6718,-2.1813 12.7556,-0.991 12.7556,-0.991 0,0 1.5094,3.7703 -1.3357,6.8524 -0.0726,0.076 -0.1443,0.1469 -0.2177,0.2223 0,0 -1.3147,1.2841 -4.6894,2.0435 0,0 -1.7971,0.4558 -1.8742,1.6738 -0.0272,0.3731 0.1414,0.7297 0.4025,0.991 0.3203,0.3198 0.8711,0.9482 1.2421,1.7881 0.7991,1.8071 -0.0969,3.8889 -1.9786,4.4722 -0.1386,0.0403 -0.2865,0.0822 -0.4371,0.1143 -0.1525,0.0371 -0.3016,0.0592 -0.4396,0.0847 -1.9559,0.279 -3.6544,-1.2163 -3.7069,-3.1909 -0.0266,-0.9182 0.2055,-1.7238 0.3544,-2.1504 0.1247,-0.3487 0.1221,-0.739 -0.0593,-1.0644 -0.5958,-1.0672 -2.4128,-0.7101 -2.4128,-0.7101 -3.3747,0.7589 -5.1166,0.165 -5.1166,0.165 -2.3627,-0.8359 -3.471,-2.5665 -3.9889,-3.9107 -0.3946,-1.0236 -0.4459,-1.8193 -0.4459,-1.8193"
             style="fill:#f9dc82;fill-opacity:1;fill-rule:nonzero;stroke:none"
             id="path1851" />
          <path
             d="m 313.2204,208.3711 c 2.2011,-2.5257 6.3221,-4.3186 11.1064,-4.5156 5.0429,-0.2069 9.5038,1.4188 11.8157,3.9872 -0.0726,0.076 -0.1443,0.1469 -0.2177,0.2223 0,0 -1.3147,1.2841 -4.6894,2.0435 0,0 -1.7971,0.4558 -1.8742,1.6738 -0.0272,0.3731 0.1414,0.7297 0.4025,0.991 0.3203,0.3198 0.8711,0.9482 1.2421,1.7881 0.7991,1.8071 -0.0969,3.8889 -1.9786,4.4722 -0.1386,0.0403 -0.2865,0.0822 -0.4371,0.1143 -0.1525,0.0371 -0.3016,0.0592 -0.4396,0.0847 -1.9559,0.279 -3.6544,-1.2163 -3.7069,-3.1909 -0.0266,-0.9182 0.2055,-1.7238 0.3544,-2.1504 0.1247,-0.3487 0.1221,-0.739 -0.0593,-1.0644 -0.5958,-1.0672 -2.4128,-0.7101 -2.4128,-0.7101 -3.3747,0.7589 -5.1166,0.165 -5.1166,0.165 -2.3627,-0.8359 -3.471,-2.5665 -3.9889,-3.9107"
             style="fill:#ffe89a;fill-opacity:1;fill-rule:nonzero;stroke:none"
             id="path1853" />
          <path
             d="m 325.1707,215.3341 c 0.6109,-0.7599 1.9259,-0.718 2.9376,0.0944 1.0119,0.8127 1.3373,2.0878 0.7268,2.8477 -0.6101,0.76 -1.9251,0.718 -2.937,-0.0944 -1.0114,-0.8127 -1.3371,-2.0877 -0.7274,-2.8477"
             style="fill:#ffeeb0;fill-opacity:1;fill-rule:nonzero;stroke:none"
             id="path1855" />
          <path
             d="m 315.1431,209.6048 c 0.2092,-0.8513 1.5787,-1.247 3.0586,-0.8847 1.4811,0.3636 2.5121,1.3484 2.3029,2.1991 -0.2086,0.8515 -1.578,1.2472 -3.0586,0.8841 -1.4805,-0.3628 -2.5115,-1.3473 -2.3029,-2.1985"
             style="fill:#ffeeb0;fill-opacity:1;fill-rule:nonzero;stroke:none"
             id="path1857" />
          <path
             d="m 311.4981,203.0797 c 0.2506,-0.1403 0.5173,-0.2823 0.794,-0.4263 0.005,0.001 0.006,-0.004 0.006,-0.004 0.2353,-0.1148 0.4743,-0.2282 0.7251,-0.3444 0.0499,-0.0222 0.1055,-0.0482 0.1554,-0.0703 1.8187,-0.8249 4.0056,-1.6047 5.9368,-2.2252 0.5551,-0.1741 1.0843,-0.3402 1.5787,-0.4896 1.0862,-0.3302 2.1778,-0.6191 3.2779,-0.8668 1.105,-0.2463 2.2164,-0.457 3.3358,-0.6211 0.5126,-0.0808 1.0636,-0.1576 1.639,-0.2333 1.9772,-0.2642 4.2478,-0.5009 6.2187,-0.5397 0.1777,-6e-4 0.3518,-0.007 0.5233,-0.005 0.0246,0.001 0.0501,-0.002 0.0748,-0.001 0.3144,0.003 0.6231,0.01 0.9156,0.0224 0.1618,0.005 0.3124,0.0122 0.462,0.0246 0,0 2.1595,1.5645 0.3371,3.6902 0,0 -3.0838,-1.1903 -12.7556,0.991 -9.6704,2.177 -11.9481,4.5705 -11.9481,4.5705 -2.5597,-1.1355 -1.2764,-3.4721 -1.2764,-3.4721"
             style="fill:#eae6d7;fill-opacity:1;fill-rule:nonzero;stroke:none"
             id="path1859" />
          <path
             d="m 311.4981,203.0797 c 0.2506,-0.1403 0.5173,-0.2823 0.794,-0.4263 0.005,0.001 0.006,-0.004 0.006,-0.004 0.2353,-0.1148 0.4743,-0.2282 0.7251,-0.3444 0.0499,-0.0222 0.1055,-0.0482 0.1554,-0.0703 1.8187,-0.8249 4.0056,-1.6047 5.9368,-2.2252 0.5551,-0.1741 1.0843,-0.3402 1.5787,-0.4896 1.0862,-0.3302 2.1778,-0.6191 3.2779,-0.8668 1.105,-0.2463 2.2164,-0.457 3.3358,-0.6211 0.5126,-0.0808 1.0636,-0.1576 1.639,-0.2333 0.5466,-0.0717 1.1158,-0.1434 1.6943,-0.2095 0.8595,-0.0975 1.6849,0.459 1.8595,1.3071 0.003,0.015 0.006,0.0295 0.009,0.0445 0.1789,0.9488 -0.5408,1.8335 -1.5004,1.9417 -1.6886,0.19 -3.7624,0.531 -6.2863,1.0985 -9.6704,2.177 -11.9481,4.5705 -11.9481,4.5705 -2.5597,-1.1355 -1.2764,-3.4721 -1.2764,-3.4721"
             style="fill:#ffffff;fill-opacity:1;fill-rule:nonzero;stroke:none"
             id="path1861" />
          <path
             d="m 303.6569,172.7609 c 0.8285,-0.5848 2.3227,-1.5146 4.7387,-2.5827 5.5306,-2.4579 11.3984,-3.7783 17.4464,-3.9265 1.3348,-0.0371 2.4411,-0.007 3.338,0.055 0.8955,0.0666 1.5826,0.1567 2.0778,0.2486 0.3303,0.0805 0.5502,0.3268 0.5854,0.6261 l 1.0703,9.6999 0.6662,6.0279 c -0.368,-1.5344 -6.2549,-1.5837 -13.1845,-0.1145 -6.9554,1.4774 -12.327,3.9257 -12.0005,5.4691 l -4.3931,-12.8307 -0.6256,-1.8289 c -0.1103,-0.313 0.002,-0.65 0.2809,-0.8433"
             style="fill:#efd16f;fill-opacity:1;fill-rule:nonzero;stroke:none"
             id="path1863" />
          <path
             d="m 304.0016,175.4331 c 3.1351,-3.3168 9.1601,-5.18 15.8176,-4.4541 2.5265,0.2756 4.8855,0.8941 6.9673,1.7703 3.7099,1.5613 6.2314,5.0748 6.6727,9.0762 l 0.1205,1.0837 c -0.368,-1.5344 -6.2549,-1.5837 -13.1845,-0.1145 -6.9554,1.4774 -12.327,3.9257 -12.0005,5.4691 z"
             style="fill:#f9dc82;fill-opacity:1;fill-rule:nonzero;stroke:none"
             id="path1865" />
          <path
             d="m 313.7465,192.3948 c 0.3921,-0.7447 0.7186,-1.5917 0.9051,-2.5356 0.5667,-2.8721 -0.712,-5.758 -3.081,-7.4775 -0.5315,-0.3853 -1.1338,-0.7549 -1.8039,-1.0661 -3.7321,-1.7337 -8.2565,0.0235 -9.5548,3.9285 -0.0969,0.2908 -0.1797,0.5953 -0.2463,0.9145 -0.6916,3.3247 0.8921,6.6974 3.7327,8.5569 0.3809,0.2494 0.7965,0.4859 1.2478,0.6965 3.2414,1.5145 7.1302,0.1477 8.8004,-3.0172"
             style="fill:#f19584;fill-opacity:1;fill-rule:nonzero;stroke:none"
             id="path1867" />
          <path
             d="m 301.5369,187.7477 c 1.0471,-2.416 4.3426,-3.3143 7.3618,-2.0067 3.0198,1.3082 4.6182,4.3274 3.5711,6.7433 -1.0466,2.4166 -4.343,3.3149 -7.3621,2.0067 -3.0189,-1.3085 -4.6174,-4.3277 -3.5708,-6.7433"
             style="fill:#f29d91;fill-opacity:1;fill-rule:nonzero;stroke:none"
             id="path1869" />
          <path
             d="m 383.11,189.1276 c -0.1797,-0.1985 -0.2296,-0.8547 -0.3056,-1.1064 -0.3044,-1.0108 -0.6633,-2.0052 -1.057,-2.9846 -1.2881,-3.2017 -2.9803,-6.2549 -5.0689,-9.004 -4.9108,-6.4638 -12.458,-11.5387 -20.9373,-9.7741 l -14.9145,3.1031 1.1492,5.2724 c 0,0 35.4416,8.225 41.1341,14.4936"
             style="fill:#de1e41;fill-opacity:1;fill-rule:nonzero;stroke:none"
             id="path1871" />
          <path
             d="m 353.0891,185.9888 -12.9061,2.3139 c 0,0 -2.789,2.0015 -6.408,2.4956 -6.6685,0.9094 -11.7122,-5.529 -9.3104,-11.8165 1.1755,-3.0764 4.2154,-5.5874 11.4335,-4.3809 l 15.9047,-1.8893 c 0,0 2.8309,7.5444 1.2863,13.2772"
             style="fill:#f19584;fill-opacity:1;fill-rule:nonzero;stroke:none"
             id="path1873" />
          <path
             d="m 325.582,180.021 c 1.7856,-2.198 5.4553,-2.1748 8.1972,0.0536 2.7411,2.2271 3.5161,5.8147 1.7306,8.0132 -1.7861,2.198 -5.4564,2.1739 -8.1984,-0.0538 -2.7411,-2.2275 -3.5155,-5.815 -1.7294,-8.013"
             style="fill:#f29d91;fill-opacity:1;fill-rule:nonzero;stroke:none"
             id="path1875" />
          <path
             d="m 335.0585,175.5505 c 0.0822,-0.2954 0.1982,-0.5874 0.3555,-0.8689 l 0.015,0.004 8.3237,-0.9896 c 0.0408,2.8089 0.4271,8.4484 2.6555,13.489 l -5.4794,0.9822 c 0.0609,-0.2908 0.1621,-0.6007 0.2956,-0.9275 -0.4983,0.0643 -0.9952,0.0414 -1.4694,-0.0751 -1.4644,-0.3589 -2.6085,-1.5812 -2.9245,-3.1068 -0.294,-1.4522 0.2369,-2.855 1.4244,-3.7562 l -0.0607,-0.015 c -0.3118,-0.0765 -0.6137,-0.1704 -0.8926,-0.2778 -2.1592,-0.8206 -2.6785,-2.8845 -2.2431,-4.458"
             style="fill:#ee7b62;fill-opacity:1;fill-rule:nonzero;stroke:none"
             id="path1877" />
          <path
             d="m 374.0236,209.1813 c -1.4656,0.0153 -3.0629,-0.2654 -4.7342,-1.0313 -2.1849,-1.0012 -4.0005,-2.6515 -5.3731,-4.6247 -1.9678,-2.8301 -5.0694,-8.3687 -6.1197,-16.2987 0,0 -6.4525,0.4765 -11.0194,1.3371 0,0 -4.3458,-8.115 -3.2468,-16.7949 0,0 7.7009,-1.3187 13.8889,-2.4061 2.2598,-0.3968 4.5831,-0.3135 6.791,0.3107 2.2978,0.6494 5.0564,1.9244 7.4197,4.4155 0.2971,0.313 0.5652,0.6457 0.8269,0.9873 1.2804,1.664 5.4748,7.1019 8.9109,11.3854 3.2046,3.996 4.4326,9.29 3.0646,14.2262 -0.0519,0.1874 -0.1083,0.377 -0.1673,0.5681 -1.4207,4.547 -5.4776,7.8741 -10.2415,7.9254"
             style="fill:#e84568;fill-opacity:1;fill-rule:nonzero;stroke:none"
             id="path1879" />
          <path
             d="m 343.5318,171.7682 c 0,0 7.7001,-1.3195 13.885,-2.4046 2.2609,-0.3966 4.5867,-0.3144 6.7935,0.3109 2.2958,0.6463 5.057,1.925 7.418,4.4164 0.2982,0.3098 0.5661,0.6463 0.8271,0.9865 0.6957,0.8994 2.2431,2.9103 4.0652,5.2449 -2.5333,-2.992 -12.1859,-12.0314 -33.0951,-3.7607 -0.1142,-1.546 -0.0983,-3.1581 0.1063,-4.7934"
             style="fill:#e83958;fill-opacity:1;fill-rule:nonzero;stroke:none"
             id="path1881" />
          <path
             d="m 357.7966,187.2266 5.8264,-0.9138 c 0.3753,-0.0593 0.7304,0.1907 0.8027,0.5643 v 0 c 0.0752,0.3915 -0.189,0.7674 -0.5831,0.8297 l -5.8342,0.9261 z"
             style="fill:#de1e41;fill-opacity:1;fill-rule:nonzero;stroke:none"
             id="path1883" />
          <path
             d="m 365.4777,200.6963 c 0.9694,-2.1282 4.3409,-2.6759 7.5302,-1.2226 3.1898,1.4528 4.9887,4.3566 4.0187,6.4849 -0.9697,2.1285 -4.3416,2.6756 -7.5311,1.2228 -3.1893,-1.4533 -4.9884,-4.3568 -4.0178,-6.4851"
             style="fill:#e95075;fill-opacity:1;fill-rule:nonzero;stroke:none"
             id="path1885" />
          <path
             d="m 346.7772,188.5637 c 0,0 -0.4926,3.2446 -2.5387,3.1329 -0.6364,-0.0346 -1.2311,-0.3682 -1.6274,-0.8683 -0.6131,-0.771 -1.1976,-2.3255 0.563,-4.8512 0,0 -0.5919,0.3059 -1.4621,0.4499 -3.2559,0.5357 -5.1718,-3.676 -2.5313,-5.6548 0.6236,-0.4666 1.4666,-0.8533 2.6036,-1.0761 0,0 -1.91,0.2631 -3.7605,-0.4419 -3.4007,-1.2943 -1.938,-6.4284 1.6456,-5.7985 0.1924,0.0337 0.3943,0.0762 0.6043,0.1275 0,0 -0.8416,-0.1519 -1.4757,-0.8532 -1.641,-1.8165 0.7945,-4.4212 2.8247,-3.0538 0.6069,0.4091 1.2552,1.067 1.9077,2.0926 0,0 -0.5865,9.2806 3.2468,16.7949"
             style="fill:#f1f4f7;fill-opacity:1;fill-rule:nonzero;stroke:none"
             id="path1887" />
          <path
             d="m 342.5278,188.9515 c -0.0178,-1.2883 0.6489,-2.3422 1.4873,-2.3533 0.8385,-0.0113 1.5325,1.0247 1.5498,2.3131 0.017,1.288 -0.6489,2.342 -1.4874,2.353 -0.839,0.0111 -1.533,-1.0241 -1.5497,-2.3128"
             style="fill:#ffffff;fill-opacity:1;fill-rule:nonzero;stroke:none"
             id="path1889" />
          <path
             d="m 338.453,183.227 c 0.2123,-1.0908 1.5724,-1.7436 3.0376,-1.4576 1.4644,0.2852 2.48,1.4014 2.2672,2.4922 -0.2132,1.0911 -1.5733,1.7439 -3.0379,1.4584 -1.465,-0.2851 -2.4801,-1.4014 -2.2669,-2.493"
             style="fill:#ffffff;fill-opacity:1;fill-rule:nonzero;stroke:none"
             id="path1891" />
          <path
             d="m 336.6544,175.5658 c 0.5168,-1.1342 2.1875,-1.4831 3.7316,-0.7793 1.5443,0.7033 2.3771,2.1929 1.8603,3.3273 -0.5167,1.1336 -2.1869,1.4831 -3.7312,0.7793 -1.544,-0.7042 -2.3774,-2.1932 -1.8607,-3.3273"
             style="fill:#ffffff;fill-opacity:1;fill-rule:nonzero;stroke:none"
             id="path1893" />
          <path
             d="m 338.9054,170.5314 c 0.5236,-0.5462 1.5418,-0.4223 2.2728,0.2784 0.7311,0.7004 0.8983,1.7121 0.3748,2.2592 -0.5247,0.5471 -1.5418,0.4224 -2.2734,-0.2786 -0.7311,-0.7008 -0.8983,-1.7113 -0.3742,-2.259"
             style="fill:#ffffff;fill-opacity:1;fill-rule:nonzero;stroke:none"
             id="path1895" />
        </g>
        <path
           d="m 376.7434,200.2637 c -2.6887,0.0641 -5.7104,-0.3772 -8.227,-1.1517 -2.5169,-0.7747 -4.5283,-1.8825 -6.4199,-3.9319 -1.8916,-2.0495 -3.6635,-5.0403 -4.4271,-6.9605 -0.764,-1.9205 -0.5196,-2.7694 -1.4684,-2.1861 -0.949,0.5837 -3.0906,2.5997 -5.4887,2.8798 -2.3984,0.2797 -5.0525,-1.1767 -6.7071,-3.3721 -1.6543,-2.1955 -2.3088,-5.1296 -3.6465,-5.9304 -1.3379,-0.8005 -3.3584,0.5323 -6.5503,1.4468 -3.1918,0.9145 -7.5537,1.41 -10.8637,1.2702 -3.3103,-0.14 -5.5684,-0.9161 -7.5583,-1.8791 -1.9902,-0.9632 -3.712,-2.1135 -5.446,-3.5949 -1.7342,-1.4814 -3.4798,-3.2933 -7.2725,-7.2059 -3.7931,-3.913 -9.6324,-9.9261 -11.9523,-15.128 -2.3199,-5.2021 -1.1191,-9.5927 0.2922,-15.3079 1.4114,-5.7155 3.034,-12.7551 6.9302,-17.913 3.8962,-5.1579 10.0655,-8.4336 26.4336,-8.1561 16.3681,0.2769 42.935,4.1063 60.6475,12.4336 17.7126,8.3273 26.5717,21.1527 30.4379,31.0122 3.8659,9.8589 2.7388,16.7516 -1.6186,22.7908 -4.3574,6.0386 -11.9455,11.2241 -17.4333,14.3617 -5.4879,3.138 -8.8747,4.229 -11.7462,5.0593 -2.8715,0.83 -5.2266,1.3992 -7.9155,1.4632"
           style="fill:#ffffff;fill-opacity:1;fill-rule:evenodd;stroke:none"
           id="path1897" />
      </g>
    </g>
  </g>
</svg>
